G04 Layer: TopSilkLayer*
G04 EasyEDA v6.4.25, 2021-10-28T21:29:07+02:00*
G04 1e849160e92242f7ba3bdc0c984c9892,d4fee26373094fa09ce5a0d27c2d2193,10*
G04 Gerber Generator version 0.2*
G04 Scale: 100 percent, Rotated: No, Reflected: No *
G04 Dimensions in millimeters *
G04 leading zeros omitted , absolute positions ,4 integer and 5 decimal *
%FSLAX45Y45*%
%MOMM*%

%ADD17C,0.2540*%
%ADD18C,0.4000*%
%ADD19C,0.1524*%
%ADD20C,0.2032*%
%ADD21C,0.1270*%

%LPD*%
D19*
X2773083Y-3374400D02*
G01*
X2851061Y-3374400D01*
X2866555Y-3369320D01*
X2876969Y-3358906D01*
X2882049Y-3343158D01*
X2882049Y-3332744D01*
X2876969Y-3317250D01*
X2866555Y-3306836D01*
X2851061Y-3301756D01*
X2773083Y-3301756D01*
X2788577Y-3204982D02*
G01*
X2778163Y-3210316D01*
X2773083Y-3225810D01*
X2773083Y-3236224D01*
X2778163Y-3251718D01*
X2793911Y-3262132D01*
X2819819Y-3267466D01*
X2845727Y-3267466D01*
X2866555Y-3262132D01*
X2876969Y-3251718D01*
X2882049Y-3236224D01*
X2882049Y-3230890D01*
X2876969Y-3215396D01*
X2866555Y-3204982D01*
X2851061Y-3199902D01*
X2845727Y-3199902D01*
X2830233Y-3204982D01*
X2819819Y-3215396D01*
X2814739Y-3230890D01*
X2814739Y-3236224D01*
X2819819Y-3251718D01*
X2830233Y-3262132D01*
X2845727Y-3267466D01*
X3061627Y-3628908D02*
G01*
X3158655Y-3665738D01*
X3061627Y-3628908D02*
G01*
X3158655Y-3591824D01*
X3126143Y-3651768D02*
G01*
X3126143Y-3605794D01*
X3061627Y-3561344D02*
G01*
X3158655Y-3561344D01*
X3061627Y-3561344D02*
G01*
X3158655Y-3496828D01*
X3061627Y-3496828D02*
G01*
X3158655Y-3496828D01*
X3061627Y-3433836D02*
G01*
X3158655Y-3433836D01*
X3061627Y-3466348D02*
G01*
X3061627Y-3401578D01*
X3061627Y-3371098D02*
G01*
X3158655Y-3371098D01*
X3061627Y-3371098D02*
G01*
X3061627Y-3311154D01*
X3107855Y-3371098D02*
G01*
X3107855Y-3334268D01*
X3158655Y-3371098D02*
G01*
X3158655Y-3311154D01*
X3061627Y-3280674D02*
G01*
X3158655Y-3280674D01*
X3061627Y-3280674D02*
G01*
X3158655Y-3215904D01*
X3061627Y-3215904D02*
G01*
X3158655Y-3215904D01*
X3061627Y-3185424D02*
G01*
X3158655Y-3185424D01*
X3061627Y-3185424D02*
G01*
X3158655Y-3120908D01*
X3061627Y-3120908D02*
G01*
X3158655Y-3120908D01*
X3061627Y-3053344D02*
G01*
X3158655Y-3090428D01*
X3061627Y-3053344D02*
G01*
X3158655Y-3016514D01*
X3126143Y-3076458D02*
G01*
X3126143Y-3030230D01*
X6495199Y-3628400D02*
G01*
X6547269Y-3628400D01*
X6557683Y-3624844D01*
X6564541Y-3617986D01*
X6568097Y-3607572D01*
X6568097Y-3600714D01*
X6564541Y-3590300D01*
X6557683Y-3583442D01*
X6547269Y-3579886D01*
X6495199Y-3579886D01*
X6505613Y-3508512D02*
G01*
X6498755Y-3515370D01*
X6495199Y-3525784D01*
X6495199Y-3539754D01*
X6498755Y-3550168D01*
X6505613Y-3557026D01*
X6512725Y-3557026D01*
X6519583Y-3553470D01*
X6522885Y-3550168D01*
X6526441Y-3543310D01*
X6533299Y-3522482D01*
X6536855Y-3515370D01*
X6540411Y-3512068D01*
X6547269Y-3508512D01*
X6557683Y-3508512D01*
X6564541Y-3515370D01*
X6568097Y-3525784D01*
X6568097Y-3539754D01*
X6564541Y-3550168D01*
X6557683Y-3557026D01*
X6495199Y-3485652D02*
G01*
X6568097Y-3485652D01*
X6495199Y-3485652D02*
G01*
X6495199Y-3454410D01*
X6498755Y-3444250D01*
X6502311Y-3440694D01*
X6509169Y-3437138D01*
X6516027Y-3437138D01*
X6522885Y-3440694D01*
X6526441Y-3444250D01*
X6529997Y-3454410D01*
X6529997Y-3485652D02*
G01*
X6529997Y-3454410D01*
X6533299Y-3444250D01*
X6536855Y-3440694D01*
X6543713Y-3437138D01*
X6554127Y-3437138D01*
X6560985Y-3440694D01*
X6564541Y-3444250D01*
X6568097Y-3454410D01*
X6568097Y-3485652D01*
X6495199Y-3360938D02*
G01*
X6568097Y-3360938D01*
X6495199Y-3360938D02*
G01*
X6568097Y-3333252D01*
X6495199Y-3305566D02*
G01*
X6568097Y-3333252D01*
X6495199Y-3305566D02*
G01*
X6568097Y-3305566D01*
X6495199Y-3282706D02*
G01*
X6568097Y-3282706D01*
X6512725Y-3208030D02*
G01*
X6505613Y-3211332D01*
X6498755Y-3218190D01*
X6495199Y-3225302D01*
X6495199Y-3239018D01*
X6498755Y-3246130D01*
X6505613Y-3252988D01*
X6512725Y-3256290D01*
X6522885Y-3259846D01*
X6540411Y-3259846D01*
X6550825Y-3256290D01*
X6557683Y-3252988D01*
X6564541Y-3246130D01*
X6568097Y-3239018D01*
X6568097Y-3225302D01*
X6564541Y-3218190D01*
X6557683Y-3211332D01*
X6550825Y-3208030D01*
X6495199Y-3185170D02*
G01*
X6568097Y-3185170D01*
X6495199Y-3185170D02*
G01*
X6495199Y-3153928D01*
X6498755Y-3143514D01*
X6502311Y-3139958D01*
X6509169Y-3136656D01*
X6516027Y-3136656D01*
X6522885Y-3139958D01*
X6526441Y-3143514D01*
X6529997Y-3153928D01*
X6529997Y-3185170D01*
X6529997Y-3160786D02*
G01*
X6568097Y-3136656D01*
X6495199Y-3092968D02*
G01*
X6498755Y-3099826D01*
X6505613Y-3106684D01*
X6512725Y-3110240D01*
X6522885Y-3113796D01*
X6540411Y-3113796D01*
X6550825Y-3110240D01*
X6557683Y-3106684D01*
X6564541Y-3099826D01*
X6568097Y-3092968D01*
X6568097Y-3078998D01*
X6564541Y-3072140D01*
X6557683Y-3065282D01*
X6550825Y-3061726D01*
X6540411Y-3058170D01*
X6522885Y-3058170D01*
X6512725Y-3061726D01*
X6505613Y-3065282D01*
X6498755Y-3072140D01*
X6495199Y-3078998D01*
X6495199Y-3092968D01*
X6698399Y-4542800D02*
G01*
X6698399Y-4469902D01*
X6698399Y-4542800D02*
G01*
X6667157Y-4542800D01*
X6656743Y-4539244D01*
X6653441Y-4535688D01*
X6649885Y-4528830D01*
X6649885Y-4521972D01*
X6653441Y-4515114D01*
X6656743Y-4511558D01*
X6667157Y-4508002D01*
X6698399Y-4508002D01*
X6674269Y-4508002D02*
G01*
X6649885Y-4469902D01*
X6627025Y-4542800D02*
G01*
X6627025Y-4469902D01*
X6627025Y-4542800D02*
G01*
X6582067Y-4542800D01*
X6627025Y-4508002D02*
G01*
X6599339Y-4508002D01*
X6627025Y-4469902D02*
G01*
X6582067Y-4469902D01*
X6510693Y-4532386D02*
G01*
X6517551Y-4539244D01*
X6527965Y-4542800D01*
X6541935Y-4542800D01*
X6552349Y-4539244D01*
X6559207Y-4532386D01*
X6559207Y-4525274D01*
X6555651Y-4518416D01*
X6552349Y-4515114D01*
X6545237Y-4511558D01*
X6524409Y-4504700D01*
X6517551Y-4501144D01*
X6514249Y-4497588D01*
X6510693Y-4490730D01*
X6510693Y-4480316D01*
X6517551Y-4473458D01*
X6527965Y-4469902D01*
X6541935Y-4469902D01*
X6552349Y-4473458D01*
X6559207Y-4480316D01*
X6487833Y-4542800D02*
G01*
X6487833Y-4469902D01*
X6487833Y-4542800D02*
G01*
X6442875Y-4542800D01*
X6487833Y-4508002D02*
G01*
X6460147Y-4508002D01*
X6487833Y-4469902D02*
G01*
X6442875Y-4469902D01*
X6395631Y-4542800D02*
G01*
X6395631Y-4469902D01*
X6420015Y-4542800D02*
G01*
X6371501Y-4542800D01*
X6649885Y-4354586D02*
G01*
X6656743Y-4361444D01*
X6667157Y-4365000D01*
X6681127Y-4365000D01*
X6691541Y-4361444D01*
X6698399Y-4354586D01*
X6698399Y-4347474D01*
X6694843Y-4340616D01*
X6691541Y-4337314D01*
X6684429Y-4333758D01*
X6663855Y-4326900D01*
X6656743Y-4323344D01*
X6653441Y-4319788D01*
X6649885Y-4312930D01*
X6649885Y-4302516D01*
X6656743Y-4295658D01*
X6667157Y-4292102D01*
X6681127Y-4292102D01*
X6691541Y-4295658D01*
X6698399Y-4302516D01*
X6627025Y-4365000D02*
G01*
X6609753Y-4292102D01*
X6592481Y-4365000D02*
G01*
X6609753Y-4292102D01*
X6592481Y-4365000D02*
G01*
X6575209Y-4292102D01*
X6557683Y-4365000D02*
G01*
X6575209Y-4292102D01*
X6534823Y-4365000D02*
G01*
X6534823Y-4292102D01*
X6487833Y-4365000D02*
G01*
X6487833Y-4292102D01*
X6511963Y-4365000D02*
G01*
X6463449Y-4365000D01*
X6388773Y-4347474D02*
G01*
X6392329Y-4354586D01*
X6399187Y-4361444D01*
X6406045Y-4365000D01*
X6420015Y-4365000D01*
X6426873Y-4361444D01*
X6433731Y-4354586D01*
X6437287Y-4347474D01*
X6440589Y-4337314D01*
X6440589Y-4319788D01*
X6437287Y-4309374D01*
X6433731Y-4302516D01*
X6426873Y-4295658D01*
X6420015Y-4292102D01*
X6406045Y-4292102D01*
X6399187Y-4295658D01*
X6392329Y-4302516D01*
X6388773Y-4309374D01*
X6365913Y-4365000D02*
G01*
X6365913Y-4292102D01*
X6317399Y-4365000D02*
G01*
X6317399Y-4292102D01*
X6365913Y-4330202D02*
G01*
X6317399Y-4330202D01*
D20*
X3574199Y-2512324D02*
G01*
X3645827Y-2512324D01*
X3574199Y-2536200D02*
G01*
X3574199Y-2488448D01*
X3574199Y-2466096D02*
G01*
X3645827Y-2418344D01*
X3574199Y-2418344D02*
G01*
X3645827Y-2466096D01*
X3574199Y-2395738D02*
G01*
X3645827Y-2395738D01*
X3574199Y-2395738D02*
G01*
X3574199Y-2371862D01*
X3577501Y-2361702D01*
X3584359Y-2354844D01*
X3591217Y-2351542D01*
X3601377Y-2347986D01*
X3618395Y-2347986D01*
X3628809Y-2351542D01*
X3635667Y-2354844D01*
X3642271Y-2361702D01*
X3645827Y-2371862D01*
X3645827Y-2395738D01*
X3812705Y-2536200D02*
G01*
X3884333Y-2536200D01*
X3812705Y-2536200D02*
G01*
X3812705Y-2505466D01*
X3816007Y-2495306D01*
X3819563Y-2492004D01*
X3826421Y-2488448D01*
X3833025Y-2488448D01*
X3839883Y-2492004D01*
X3843439Y-2495306D01*
X3846741Y-2505466D01*
X3846741Y-2536200D01*
X3846741Y-2512324D02*
G01*
X3884333Y-2488448D01*
X3812705Y-2466096D02*
G01*
X3884333Y-2418344D01*
X3812705Y-2418344D02*
G01*
X3884333Y-2466096D01*
X3812705Y-2395738D02*
G01*
X3884333Y-2395738D01*
X3812705Y-2395738D02*
G01*
X3812705Y-2371862D01*
X3816007Y-2361702D01*
X3822865Y-2354844D01*
X3829723Y-2351542D01*
X3839883Y-2347986D01*
X3856901Y-2347986D01*
X3867315Y-2351542D01*
X3874173Y-2354844D01*
X3880777Y-2361702D01*
X3884333Y-2371862D01*
X3884333Y-2395738D01*
X4066705Y-2536200D02*
G01*
X4138333Y-2536200D01*
X4066705Y-2493274D02*
G01*
X4070007Y-2500132D01*
X4076865Y-2506990D01*
X4083723Y-2510292D01*
X4093883Y-2513594D01*
X4110901Y-2513594D01*
X4121315Y-2510292D01*
X4128173Y-2506990D01*
X4134777Y-2500132D01*
X4138333Y-2493274D01*
X4138333Y-2479558D01*
X4134777Y-2472700D01*
X4128173Y-2466096D01*
X4121315Y-2462540D01*
X4110901Y-2459238D01*
X4093883Y-2459238D01*
X4083723Y-2462540D01*
X4076865Y-2466096D01*
X4070007Y-2472700D01*
X4066705Y-2479558D01*
X4066705Y-2493274D01*
X4083723Y-2433330D02*
G01*
X4080421Y-2433330D01*
X4073563Y-2429774D01*
X4070007Y-2426472D01*
X4066705Y-2419614D01*
X4066705Y-2405898D01*
X4070007Y-2399040D01*
X4073563Y-2395738D01*
X4080421Y-2392436D01*
X4087025Y-2392436D01*
X4093883Y-2395738D01*
X4104297Y-2402596D01*
X4138333Y-2436632D01*
X4138333Y-2388880D01*
X4083723Y-2362972D02*
G01*
X4080421Y-2362972D01*
X4073563Y-2359670D01*
X4070007Y-2356114D01*
X4066705Y-2349256D01*
X4066705Y-2335794D01*
X4070007Y-2328936D01*
X4073563Y-2325634D01*
X4080421Y-2322078D01*
X4087025Y-2322078D01*
X4093883Y-2325634D01*
X4104297Y-2332238D01*
X4138333Y-2366528D01*
X4138333Y-2318776D01*
X4320705Y-2536200D02*
G01*
X4392333Y-2536200D01*
X4320705Y-2493274D02*
G01*
X4324007Y-2500132D01*
X4330865Y-2506990D01*
X4337723Y-2510292D01*
X4347883Y-2513594D01*
X4364901Y-2513594D01*
X4375315Y-2510292D01*
X4382173Y-2506990D01*
X4388777Y-2500132D01*
X4392333Y-2493274D01*
X4392333Y-2479558D01*
X4388777Y-2472700D01*
X4382173Y-2466096D01*
X4375315Y-2462540D01*
X4364901Y-2459238D01*
X4347883Y-2459238D01*
X4337723Y-2462540D01*
X4330865Y-2466096D01*
X4324007Y-2472700D01*
X4320705Y-2479558D01*
X4320705Y-2493274D01*
X4337723Y-2433330D02*
G01*
X4334421Y-2433330D01*
X4327563Y-2429774D01*
X4324007Y-2426472D01*
X4320705Y-2419614D01*
X4320705Y-2405898D01*
X4324007Y-2399040D01*
X4327563Y-2395738D01*
X4334421Y-2392436D01*
X4341025Y-2392436D01*
X4347883Y-2395738D01*
X4358297Y-2402596D01*
X4392333Y-2436632D01*
X4392333Y-2388880D01*
X4334421Y-2366528D02*
G01*
X4330865Y-2359670D01*
X4320705Y-2349256D01*
X4392333Y-2349256D01*
X4574705Y-2536200D02*
G01*
X4646333Y-2536200D01*
X4574705Y-2493274D02*
G01*
X4578007Y-2500132D01*
X4584865Y-2506990D01*
X4591723Y-2510292D01*
X4601883Y-2513594D01*
X4618901Y-2513594D01*
X4629315Y-2510292D01*
X4636173Y-2506990D01*
X4642777Y-2500132D01*
X4646333Y-2493274D01*
X4646333Y-2479558D01*
X4642777Y-2472700D01*
X4636173Y-2466096D01*
X4629315Y-2462540D01*
X4618901Y-2459238D01*
X4601883Y-2459238D01*
X4591723Y-2462540D01*
X4584865Y-2466096D01*
X4578007Y-2472700D01*
X4574705Y-2479558D01*
X4574705Y-2493274D01*
X4588421Y-2436632D02*
G01*
X4584865Y-2429774D01*
X4574705Y-2419614D01*
X4646333Y-2419614D01*
X4574705Y-2349256D02*
G01*
X4646333Y-2383546D01*
X4574705Y-2397008D02*
G01*
X4574705Y-2349256D01*
X4828705Y-2536200D02*
G01*
X4900333Y-2536200D01*
X4828705Y-2493274D02*
G01*
X4832007Y-2500132D01*
X4838865Y-2506990D01*
X4845723Y-2510292D01*
X4855883Y-2513594D01*
X4872901Y-2513594D01*
X4883315Y-2510292D01*
X4890173Y-2506990D01*
X4896777Y-2500132D01*
X4900333Y-2493274D01*
X4900333Y-2479558D01*
X4896777Y-2472700D01*
X4890173Y-2466096D01*
X4883315Y-2462540D01*
X4872901Y-2459238D01*
X4855883Y-2459238D01*
X4845723Y-2462540D01*
X4838865Y-2466096D01*
X4832007Y-2472700D01*
X4828705Y-2479558D01*
X4828705Y-2493274D01*
X4842421Y-2436632D02*
G01*
X4838865Y-2429774D01*
X4828705Y-2419614D01*
X4900333Y-2419614D01*
X4838865Y-2356114D02*
G01*
X4832007Y-2359670D01*
X4828705Y-2369830D01*
X4828705Y-2376688D01*
X4832007Y-2386848D01*
X4842421Y-2393706D01*
X4859439Y-2397008D01*
X4876457Y-2397008D01*
X4890173Y-2393706D01*
X4896777Y-2386848D01*
X4900333Y-2376688D01*
X4900333Y-2373132D01*
X4896777Y-2362972D01*
X4890173Y-2356114D01*
X4879759Y-2352812D01*
X4876457Y-2352812D01*
X4866297Y-2356114D01*
X4859439Y-2362972D01*
X4855883Y-2373132D01*
X4855883Y-2376688D01*
X4859439Y-2386848D01*
X4866297Y-2393706D01*
X4876457Y-2397008D01*
X5099723Y-2485146D02*
G01*
X5092865Y-2488448D01*
X5086007Y-2495306D01*
X5082705Y-2502164D01*
X5082705Y-2515626D01*
X5086007Y-2522484D01*
X5092865Y-2529342D01*
X5099723Y-2532898D01*
X5109883Y-2536200D01*
X5126901Y-2536200D01*
X5137315Y-2532898D01*
X5144173Y-2529342D01*
X5150777Y-2522484D01*
X5154333Y-2515626D01*
X5154333Y-2502164D01*
X5150777Y-2495306D01*
X5144173Y-2488448D01*
X5137315Y-2485146D01*
X5126901Y-2485146D01*
X5126901Y-2502164D02*
G01*
X5126901Y-2485146D01*
X5082705Y-2462540D02*
G01*
X5154333Y-2462540D01*
X5082705Y-2462540D02*
G01*
X5154333Y-2414788D01*
X5082705Y-2414788D02*
G01*
X5154333Y-2414788D01*
X5082705Y-2392436D02*
G01*
X5154333Y-2392436D01*
X5082705Y-2392436D02*
G01*
X5082705Y-2368560D01*
X5086007Y-2358146D01*
X5092865Y-2351542D01*
X5099723Y-2347986D01*
X5109883Y-2344684D01*
X5126901Y-2344684D01*
X5137315Y-2347986D01*
X5144173Y-2351542D01*
X5150777Y-2358146D01*
X5154333Y-2368560D01*
X5154333Y-2392436D01*
X5336705Y-2536200D02*
G01*
X5408333Y-2509022D01*
X5336705Y-2481590D02*
G01*
X5408333Y-2509022D01*
X5353723Y-2407930D02*
G01*
X5346865Y-2411486D01*
X5340007Y-2418344D01*
X5336705Y-2424948D01*
X5336705Y-2438664D01*
X5340007Y-2445522D01*
X5346865Y-2452380D01*
X5353723Y-2455682D01*
X5363883Y-2459238D01*
X5380901Y-2459238D01*
X5391315Y-2455682D01*
X5398173Y-2452380D01*
X5404777Y-2445522D01*
X5408333Y-2438664D01*
X5408333Y-2424948D01*
X5404777Y-2418344D01*
X5398173Y-2411486D01*
X5391315Y-2407930D01*
X5353723Y-2334270D02*
G01*
X5346865Y-2337826D01*
X5340007Y-2344684D01*
X5336705Y-2351542D01*
X5336705Y-2365004D01*
X5340007Y-2371862D01*
X5346865Y-2378720D01*
X5353723Y-2382022D01*
X5363883Y-2385578D01*
X5380901Y-2385578D01*
X5391315Y-2382022D01*
X5398173Y-2378720D01*
X5404777Y-2371862D01*
X5408333Y-2365004D01*
X5408333Y-2351542D01*
X5404777Y-2344684D01*
X5398173Y-2337826D01*
X5391315Y-2334270D01*
X5590705Y-2512324D02*
G01*
X5662333Y-2512324D01*
X5590705Y-2536200D02*
G01*
X5590705Y-2488448D01*
X5590705Y-2466096D02*
G01*
X5662333Y-2466096D01*
X5590705Y-2466096D02*
G01*
X5590705Y-2442220D01*
X5594007Y-2431806D01*
X5600865Y-2424948D01*
X5607723Y-2421646D01*
X5617883Y-2418344D01*
X5634901Y-2418344D01*
X5645315Y-2421646D01*
X5652173Y-2424948D01*
X5658777Y-2431806D01*
X5662333Y-2442220D01*
X5662333Y-2466096D01*
X5590705Y-2375418D02*
G01*
X5594007Y-2385578D01*
X5604421Y-2392436D01*
X5621439Y-2395738D01*
X5631599Y-2395738D01*
X5648617Y-2392436D01*
X5658777Y-2385578D01*
X5662333Y-2375418D01*
X5662333Y-2368560D01*
X5658777Y-2358146D01*
X5648617Y-2351542D01*
X5631599Y-2347986D01*
X5621439Y-2347986D01*
X5604421Y-2351542D01*
X5594007Y-2358146D01*
X5590705Y-2368560D01*
X5590705Y-2375418D01*
X5854865Y-2488448D02*
G01*
X5848007Y-2495306D01*
X5844705Y-2505466D01*
X5844705Y-2519182D01*
X5848007Y-2529342D01*
X5854865Y-2536200D01*
X5861723Y-2536200D01*
X5868581Y-2532898D01*
X5871883Y-2529342D01*
X5875439Y-2522484D01*
X5882297Y-2502164D01*
X5885599Y-2495306D01*
X5888901Y-2492004D01*
X5895759Y-2488448D01*
X5906173Y-2488448D01*
X5912777Y-2495306D01*
X5916333Y-2505466D01*
X5916333Y-2519182D01*
X5912777Y-2529342D01*
X5906173Y-2536200D01*
X5844705Y-2466096D02*
G01*
X5916333Y-2466096D01*
X5844705Y-2466096D02*
G01*
X5844705Y-2442220D01*
X5848007Y-2431806D01*
X5854865Y-2424948D01*
X5861723Y-2421646D01*
X5871883Y-2418344D01*
X5888901Y-2418344D01*
X5899315Y-2421646D01*
X5906173Y-2424948D01*
X5912777Y-2431806D01*
X5916333Y-2442220D01*
X5916333Y-2466096D01*
X5844705Y-2375418D02*
G01*
X5848007Y-2385578D01*
X5858421Y-2392436D01*
X5875439Y-2395738D01*
X5885599Y-2395738D01*
X5902617Y-2392436D01*
X5912777Y-2385578D01*
X5916333Y-2375418D01*
X5916333Y-2368560D01*
X5912777Y-2358146D01*
X5902617Y-2351542D01*
X5885599Y-2347986D01*
X5875439Y-2347986D01*
X5858421Y-2351542D01*
X5848007Y-2358146D01*
X5844705Y-2368560D01*
X5844705Y-2375418D01*
X3558705Y-4314200D02*
G01*
X3630333Y-4314200D01*
X3558705Y-4314200D02*
G01*
X3558705Y-4283466D01*
X3562007Y-4273306D01*
X3565563Y-4270004D01*
X3572421Y-4266448D01*
X3579025Y-4266448D01*
X3585883Y-4270004D01*
X3589439Y-4273306D01*
X3592741Y-4283466D01*
X3592741Y-4314200D01*
X3592741Y-4290324D02*
G01*
X3630333Y-4266448D01*
X3568865Y-4196344D02*
G01*
X3562007Y-4202948D01*
X3558705Y-4213362D01*
X3558705Y-4226824D01*
X3562007Y-4237238D01*
X3568865Y-4244096D01*
X3575723Y-4244096D01*
X3582581Y-4240540D01*
X3585883Y-4237238D01*
X3589439Y-4230380D01*
X3596297Y-4209806D01*
X3599599Y-4202948D01*
X3602901Y-4199646D01*
X3609759Y-4196344D01*
X3620173Y-4196344D01*
X3626777Y-4202948D01*
X3630333Y-4213362D01*
X3630333Y-4226824D01*
X3626777Y-4237238D01*
X3620173Y-4244096D01*
X3558705Y-4149862D02*
G01*
X3630333Y-4149862D01*
X3558705Y-4173738D02*
G01*
X3558705Y-4125986D01*
X3807371Y-4266448D02*
G01*
X3800513Y-4273306D01*
X3797211Y-4283466D01*
X3797211Y-4297182D01*
X3800513Y-4307342D01*
X3807371Y-4314200D01*
X3814229Y-4314200D01*
X3821087Y-4310898D01*
X3824389Y-4307342D01*
X3827945Y-4300484D01*
X3834803Y-4280164D01*
X3838105Y-4273306D01*
X3841407Y-4270004D01*
X3848265Y-4266448D01*
X3858679Y-4266448D01*
X3865283Y-4273306D01*
X3868839Y-4283466D01*
X3868839Y-4297182D01*
X3865283Y-4307342D01*
X3858679Y-4314200D01*
X3797211Y-4244096D02*
G01*
X3868839Y-4216664D01*
X3797211Y-4189486D02*
G01*
X3868839Y-4216664D01*
X3797211Y-4166880D02*
G01*
X3868839Y-4166880D01*
X3797211Y-4166880D02*
G01*
X3797211Y-4136146D01*
X3800513Y-4125986D01*
X3804069Y-4122684D01*
X3810927Y-4119128D01*
X3821087Y-4119128D01*
X3827945Y-4122684D01*
X3831247Y-4125986D01*
X3834803Y-4136146D01*
X3834803Y-4166880D01*
X4051211Y-4314200D02*
G01*
X4122839Y-4314200D01*
X4051211Y-4271274D02*
G01*
X4054513Y-4278132D01*
X4061371Y-4284990D01*
X4068229Y-4288292D01*
X4078389Y-4291594D01*
X4095407Y-4291594D01*
X4105821Y-4288292D01*
X4112679Y-4284990D01*
X4119283Y-4278132D01*
X4122839Y-4271274D01*
X4122839Y-4257558D01*
X4119283Y-4250700D01*
X4112679Y-4244096D01*
X4105821Y-4240540D01*
X4095407Y-4237238D01*
X4078389Y-4237238D01*
X4068229Y-4240540D01*
X4061371Y-4244096D01*
X4054513Y-4250700D01*
X4051211Y-4257558D01*
X4051211Y-4271274D01*
X4068229Y-4211330D02*
G01*
X4064927Y-4211330D01*
X4058069Y-4207774D01*
X4054513Y-4204472D01*
X4051211Y-4197614D01*
X4051211Y-4183898D01*
X4054513Y-4177040D01*
X4058069Y-4173738D01*
X4064927Y-4170436D01*
X4071531Y-4170436D01*
X4078389Y-4173738D01*
X4088803Y-4180596D01*
X4122839Y-4214632D01*
X4122839Y-4166880D01*
X4061371Y-4103634D02*
G01*
X4054513Y-4106936D01*
X4051211Y-4117096D01*
X4051211Y-4123954D01*
X4054513Y-4134114D01*
X4064927Y-4140972D01*
X4081945Y-4144528D01*
X4098963Y-4144528D01*
X4112679Y-4140972D01*
X4119283Y-4134114D01*
X4122839Y-4123954D01*
X4122839Y-4120652D01*
X4119283Y-4110238D01*
X4112679Y-4103634D01*
X4102265Y-4100078D01*
X4098963Y-4100078D01*
X4088803Y-4103634D01*
X4081945Y-4110238D01*
X4078389Y-4120652D01*
X4078389Y-4123954D01*
X4081945Y-4134114D01*
X4088803Y-4140972D01*
X4098963Y-4144528D01*
X4305211Y-4314200D02*
G01*
X4376839Y-4314200D01*
X4305211Y-4271274D02*
G01*
X4308513Y-4278132D01*
X4315371Y-4284990D01*
X4322229Y-4288292D01*
X4332389Y-4291594D01*
X4349407Y-4291594D01*
X4359821Y-4288292D01*
X4366679Y-4284990D01*
X4373283Y-4278132D01*
X4376839Y-4271274D01*
X4376839Y-4257558D01*
X4373283Y-4250700D01*
X4366679Y-4244096D01*
X4359821Y-4240540D01*
X4349407Y-4237238D01*
X4332389Y-4237238D01*
X4322229Y-4240540D01*
X4315371Y-4244096D01*
X4308513Y-4250700D01*
X4305211Y-4257558D01*
X4305211Y-4271274D01*
X4318927Y-4214632D02*
G01*
X4315371Y-4207774D01*
X4305211Y-4197614D01*
X4376839Y-4197614D01*
X4305211Y-4157990D02*
G01*
X4308513Y-4168404D01*
X4315371Y-4171706D01*
X4322229Y-4171706D01*
X4329087Y-4168404D01*
X4332389Y-4161546D01*
X4335945Y-4147830D01*
X4339247Y-4137670D01*
X4346105Y-4130812D01*
X4352963Y-4127256D01*
X4363123Y-4127256D01*
X4369981Y-4130812D01*
X4373283Y-4134114D01*
X4376839Y-4144528D01*
X4376839Y-4157990D01*
X4373283Y-4168404D01*
X4369981Y-4171706D01*
X4363123Y-4175008D01*
X4352963Y-4175008D01*
X4346105Y-4171706D01*
X4339247Y-4164848D01*
X4335945Y-4154688D01*
X4332389Y-4140972D01*
X4329087Y-4134114D01*
X4322229Y-4130812D01*
X4315371Y-4130812D01*
X4308513Y-4134114D01*
X4305211Y-4144528D01*
X4305211Y-4157990D01*
X4559211Y-4314200D02*
G01*
X4630839Y-4314200D01*
X4559211Y-4271274D02*
G01*
X4562513Y-4278132D01*
X4569371Y-4284990D01*
X4576229Y-4288292D01*
X4586389Y-4291594D01*
X4603407Y-4291594D01*
X4613821Y-4288292D01*
X4620679Y-4284990D01*
X4627283Y-4278132D01*
X4630839Y-4271274D01*
X4630839Y-4257558D01*
X4627283Y-4250700D01*
X4620679Y-4244096D01*
X4613821Y-4240540D01*
X4603407Y-4237238D01*
X4586389Y-4237238D01*
X4576229Y-4240540D01*
X4569371Y-4244096D01*
X4562513Y-4250700D01*
X4559211Y-4257558D01*
X4559211Y-4271274D01*
X4572927Y-4214632D02*
G01*
X4569371Y-4207774D01*
X4559211Y-4197614D01*
X4630839Y-4197614D01*
X4583087Y-4130812D02*
G01*
X4593247Y-4134114D01*
X4600105Y-4140972D01*
X4603407Y-4151132D01*
X4603407Y-4154688D01*
X4600105Y-4164848D01*
X4593247Y-4171706D01*
X4583087Y-4175008D01*
X4579531Y-4175008D01*
X4569371Y-4171706D01*
X4562513Y-4164848D01*
X4559211Y-4154688D01*
X4559211Y-4151132D01*
X4562513Y-4140972D01*
X4569371Y-4134114D01*
X4583087Y-4130812D01*
X4600105Y-4130812D01*
X4617123Y-4134114D01*
X4627283Y-4140972D01*
X4630839Y-4151132D01*
X4630839Y-4157990D01*
X4627283Y-4168404D01*
X4620679Y-4171706D01*
X4813211Y-4314200D02*
G01*
X4884839Y-4314200D01*
X4813211Y-4271274D02*
G01*
X4816513Y-4278132D01*
X4823371Y-4284990D01*
X4830229Y-4288292D01*
X4840389Y-4291594D01*
X4857407Y-4291594D01*
X4867821Y-4288292D01*
X4874679Y-4284990D01*
X4881283Y-4278132D01*
X4884839Y-4271274D01*
X4884839Y-4257558D01*
X4881283Y-4250700D01*
X4874679Y-4244096D01*
X4867821Y-4240540D01*
X4857407Y-4237238D01*
X4840389Y-4237238D01*
X4830229Y-4240540D01*
X4823371Y-4244096D01*
X4816513Y-4250700D01*
X4813211Y-4257558D01*
X4813211Y-4271274D01*
X4830229Y-4211330D02*
G01*
X4826927Y-4211330D01*
X4820069Y-4207774D01*
X4816513Y-4204472D01*
X4813211Y-4197614D01*
X4813211Y-4183898D01*
X4816513Y-4177040D01*
X4820069Y-4173738D01*
X4826927Y-4170436D01*
X4833531Y-4170436D01*
X4840389Y-4173738D01*
X4850803Y-4180596D01*
X4884839Y-4214632D01*
X4884839Y-4166880D01*
X4813211Y-4137670D02*
G01*
X4813211Y-4100078D01*
X4840389Y-4120652D01*
X4840389Y-4110238D01*
X4843945Y-4103634D01*
X4847247Y-4100078D01*
X4857407Y-4096776D01*
X4864265Y-4096776D01*
X4874679Y-4100078D01*
X4881283Y-4106936D01*
X4884839Y-4117096D01*
X4884839Y-4127256D01*
X4881283Y-4137670D01*
X4877981Y-4140972D01*
X4871123Y-4144528D01*
X5067211Y-4314200D02*
G01*
X5138839Y-4314200D01*
X5067211Y-4271274D02*
G01*
X5070513Y-4278132D01*
X5077371Y-4284990D01*
X5084229Y-4288292D01*
X5094389Y-4291594D01*
X5111407Y-4291594D01*
X5121821Y-4288292D01*
X5128679Y-4284990D01*
X5135283Y-4278132D01*
X5138839Y-4271274D01*
X5138839Y-4257558D01*
X5135283Y-4250700D01*
X5128679Y-4244096D01*
X5121821Y-4240540D01*
X5111407Y-4237238D01*
X5094389Y-4237238D01*
X5084229Y-4240540D01*
X5077371Y-4244096D01*
X5070513Y-4250700D01*
X5067211Y-4257558D01*
X5067211Y-4271274D01*
X5067211Y-4173738D02*
G01*
X5067211Y-4207774D01*
X5097945Y-4211330D01*
X5094389Y-4207774D01*
X5091087Y-4197614D01*
X5091087Y-4187454D01*
X5094389Y-4177040D01*
X5101247Y-4170436D01*
X5111407Y-4166880D01*
X5118265Y-4166880D01*
X5128679Y-4170436D01*
X5135283Y-4177040D01*
X5138839Y-4187454D01*
X5138839Y-4197614D01*
X5135283Y-4207774D01*
X5131981Y-4211330D01*
X5125123Y-4214632D01*
X5321211Y-4307342D02*
G01*
X5321211Y-4270004D01*
X5348389Y-4290324D01*
X5348389Y-4280164D01*
X5351945Y-4273306D01*
X5355247Y-4270004D01*
X5365407Y-4266448D01*
X5372265Y-4266448D01*
X5382679Y-4270004D01*
X5389283Y-4276608D01*
X5392839Y-4287022D01*
X5392839Y-4297182D01*
X5389283Y-4307342D01*
X5385981Y-4310898D01*
X5379123Y-4314200D01*
X5375821Y-4240540D02*
G01*
X5379123Y-4244096D01*
X5382679Y-4240540D01*
X5379123Y-4237238D01*
X5375821Y-4240540D01*
X5321211Y-4207774D02*
G01*
X5321211Y-4170436D01*
X5348389Y-4190756D01*
X5348389Y-4180596D01*
X5351945Y-4173738D01*
X5355247Y-4170436D01*
X5365407Y-4166880D01*
X5372265Y-4166880D01*
X5382679Y-4170436D01*
X5389283Y-4177040D01*
X5392839Y-4187454D01*
X5392839Y-4197614D01*
X5389283Y-4207774D01*
X5385981Y-4211330D01*
X5379123Y-4214632D01*
X5321211Y-4144528D02*
G01*
X5392839Y-4117096D01*
X5321211Y-4089918D02*
G01*
X5392839Y-4117096D01*
X5575211Y-4290324D02*
G01*
X5646839Y-4290324D01*
X5575211Y-4314200D02*
G01*
X5575211Y-4266448D01*
X5592229Y-4192788D02*
G01*
X5585371Y-4196344D01*
X5578513Y-4202948D01*
X5575211Y-4209806D01*
X5575211Y-4223522D01*
X5578513Y-4230380D01*
X5585371Y-4237238D01*
X5592229Y-4240540D01*
X5602389Y-4244096D01*
X5619407Y-4244096D01*
X5629821Y-4240540D01*
X5636679Y-4237238D01*
X5643283Y-4230380D01*
X5646839Y-4223522D01*
X5646839Y-4209806D01*
X5643283Y-4202948D01*
X5636679Y-4196344D01*
X5629821Y-4192788D01*
X5575211Y-4170436D02*
G01*
X5646839Y-4170436D01*
X5575211Y-4122684D02*
G01*
X5622963Y-4170436D01*
X5605945Y-4153418D02*
G01*
X5646839Y-4122684D01*
X5839371Y-4266448D02*
G01*
X5832513Y-4273306D01*
X5829211Y-4283466D01*
X5829211Y-4297182D01*
X5832513Y-4307342D01*
X5839371Y-4314200D01*
X5846229Y-4314200D01*
X5853087Y-4310898D01*
X5856389Y-4307342D01*
X5859945Y-4300484D01*
X5866803Y-4280164D01*
X5870105Y-4273306D01*
X5873407Y-4270004D01*
X5880265Y-4266448D01*
X5890679Y-4266448D01*
X5897283Y-4273306D01*
X5900839Y-4283466D01*
X5900839Y-4297182D01*
X5897283Y-4307342D01*
X5890679Y-4314200D01*
X5829211Y-4244096D02*
G01*
X5900839Y-4244096D01*
X5829211Y-4244096D02*
G01*
X5829211Y-4220220D01*
X5832513Y-4209806D01*
X5839371Y-4202948D01*
X5846229Y-4199646D01*
X5856389Y-4196344D01*
X5873407Y-4196344D01*
X5883821Y-4199646D01*
X5890679Y-4202948D01*
X5897283Y-4209806D01*
X5900839Y-4220220D01*
X5900839Y-4244096D01*
X5829211Y-4166880D02*
G01*
X5829211Y-4129542D01*
X5856389Y-4149862D01*
X5856389Y-4139702D01*
X5859945Y-4132844D01*
X5863247Y-4129542D01*
X5873407Y-4125986D01*
X5880265Y-4125986D01*
X5890679Y-4129542D01*
X5897283Y-4136146D01*
X5900839Y-4146560D01*
X5900839Y-4156720D01*
X5897283Y-4166880D01*
X5893981Y-4170436D01*
X5887123Y-4173738D01*
X3575723Y-5152146D02*
G01*
X3568865Y-5155448D01*
X3562007Y-5162306D01*
X3558705Y-5169164D01*
X3558705Y-5182626D01*
X3562007Y-5189484D01*
X3568865Y-5196342D01*
X3575723Y-5199898D01*
X3585883Y-5203200D01*
X3602901Y-5203200D01*
X3613315Y-5199898D01*
X3620173Y-5196342D01*
X3626777Y-5189484D01*
X3630333Y-5182626D01*
X3630333Y-5169164D01*
X3626777Y-5162306D01*
X3620173Y-5155448D01*
X3613315Y-5152146D01*
X3602901Y-5152146D01*
X3602901Y-5169164D02*
G01*
X3602901Y-5152146D01*
X3558705Y-5129540D02*
G01*
X3630333Y-5129540D01*
X3558705Y-5129540D02*
G01*
X3630333Y-5081788D01*
X3558705Y-5081788D02*
G01*
X3630333Y-5081788D01*
X3558705Y-5059436D02*
G01*
X3630333Y-5059436D01*
X3558705Y-5059436D02*
G01*
X3558705Y-5035560D01*
X3562007Y-5025146D01*
X3568865Y-5018542D01*
X3575723Y-5014986D01*
X3585883Y-5011684D01*
X3602901Y-5011684D01*
X3613315Y-5014986D01*
X3620173Y-5018542D01*
X3626777Y-5025146D01*
X3630333Y-5035560D01*
X3630333Y-5059436D01*
X3797211Y-5203200D02*
G01*
X3868839Y-5203200D01*
X3797211Y-5203200D02*
G01*
X3868839Y-5155448D01*
X3797211Y-5155448D02*
G01*
X3868839Y-5155448D01*
X3814229Y-5081788D02*
G01*
X3807371Y-5085344D01*
X3800513Y-5091948D01*
X3797211Y-5098806D01*
X3797211Y-5112522D01*
X3800513Y-5119380D01*
X3807371Y-5126238D01*
X3814229Y-5129540D01*
X3824389Y-5133096D01*
X3841407Y-5133096D01*
X3851821Y-5129540D01*
X3858679Y-5126238D01*
X3865283Y-5119380D01*
X3868839Y-5112522D01*
X3868839Y-5098806D01*
X3865283Y-5091948D01*
X3858679Y-5085344D01*
X3851821Y-5081788D01*
X4061371Y-5155448D02*
G01*
X4054513Y-5162306D01*
X4051211Y-5172466D01*
X4051211Y-5186182D01*
X4054513Y-5196342D01*
X4061371Y-5203200D01*
X4068229Y-5203200D01*
X4075087Y-5199898D01*
X4078389Y-5196342D01*
X4081945Y-5189484D01*
X4088803Y-5169164D01*
X4092105Y-5162306D01*
X4095407Y-5159004D01*
X4102265Y-5155448D01*
X4112679Y-5155448D01*
X4119283Y-5162306D01*
X4122839Y-5172466D01*
X4122839Y-5186182D01*
X4119283Y-5196342D01*
X4112679Y-5203200D01*
X4051211Y-5133096D02*
G01*
X4122839Y-5105664D01*
X4051211Y-5078486D02*
G01*
X4122839Y-5105664D01*
X4051211Y-5055880D02*
G01*
X4122839Y-5055880D01*
X4051211Y-5055880D02*
G01*
X4122839Y-5008128D01*
X4051211Y-5008128D02*
G01*
X4122839Y-5008128D01*
X4305211Y-5203200D02*
G01*
X4376839Y-5203200D01*
X4305211Y-5160274D02*
G01*
X4308513Y-5167132D01*
X4315371Y-5173990D01*
X4322229Y-5177292D01*
X4332389Y-5180594D01*
X4349407Y-5180594D01*
X4359821Y-5177292D01*
X4366679Y-5173990D01*
X4373283Y-5167132D01*
X4376839Y-5160274D01*
X4376839Y-5146558D01*
X4373283Y-5139700D01*
X4366679Y-5133096D01*
X4359821Y-5129540D01*
X4349407Y-5126238D01*
X4332389Y-5126238D01*
X4322229Y-5129540D01*
X4315371Y-5133096D01*
X4308513Y-5139700D01*
X4305211Y-5146558D01*
X4305211Y-5160274D01*
X4305211Y-5096774D02*
G01*
X4305211Y-5059436D01*
X4332389Y-5079756D01*
X4332389Y-5069596D01*
X4335945Y-5062738D01*
X4339247Y-5059436D01*
X4349407Y-5055880D01*
X4356265Y-5055880D01*
X4366679Y-5059436D01*
X4373283Y-5066040D01*
X4376839Y-5076454D01*
X4376839Y-5086614D01*
X4373283Y-5096774D01*
X4369981Y-5100330D01*
X4363123Y-5103632D01*
X4305211Y-4992634D02*
G01*
X4305211Y-5026670D01*
X4335945Y-5029972D01*
X4332389Y-5026670D01*
X4329087Y-5016256D01*
X4329087Y-5006096D01*
X4332389Y-4995936D01*
X4339247Y-4989078D01*
X4349407Y-4985776D01*
X4356265Y-4985776D01*
X4366679Y-4989078D01*
X4373283Y-4995936D01*
X4376839Y-5006096D01*
X4376839Y-5016256D01*
X4373283Y-5026670D01*
X4369981Y-5029972D01*
X4363123Y-5033528D01*
X4559211Y-5203200D02*
G01*
X4630839Y-5203200D01*
X4559211Y-5160274D02*
G01*
X4562513Y-5167132D01*
X4569371Y-5173990D01*
X4576229Y-5177292D01*
X4586389Y-5180594D01*
X4603407Y-5180594D01*
X4613821Y-5177292D01*
X4620679Y-5173990D01*
X4627283Y-5167132D01*
X4630839Y-5160274D01*
X4630839Y-5146558D01*
X4627283Y-5139700D01*
X4620679Y-5133096D01*
X4613821Y-5129540D01*
X4603407Y-5126238D01*
X4586389Y-5126238D01*
X4576229Y-5129540D01*
X4569371Y-5133096D01*
X4562513Y-5139700D01*
X4559211Y-5146558D01*
X4559211Y-5160274D01*
X4559211Y-5096774D02*
G01*
X4559211Y-5059436D01*
X4586389Y-5079756D01*
X4586389Y-5069596D01*
X4589945Y-5062738D01*
X4593247Y-5059436D01*
X4603407Y-5055880D01*
X4610265Y-5055880D01*
X4620679Y-5059436D01*
X4627283Y-5066040D01*
X4630839Y-5076454D01*
X4630839Y-5086614D01*
X4627283Y-5096774D01*
X4623981Y-5100330D01*
X4617123Y-5103632D01*
X4559211Y-5026670D02*
G01*
X4559211Y-4989078D01*
X4586389Y-5009652D01*
X4586389Y-4999238D01*
X4589945Y-4992634D01*
X4593247Y-4989078D01*
X4603407Y-4985776D01*
X4610265Y-4985776D01*
X4620679Y-4989078D01*
X4627283Y-4995936D01*
X4630839Y-5006096D01*
X4630839Y-5016256D01*
X4627283Y-5026670D01*
X4623981Y-5029972D01*
X4617123Y-5033528D01*
X4813211Y-5203200D02*
G01*
X4884839Y-5203200D01*
X4813211Y-5160274D02*
G01*
X4816513Y-5167132D01*
X4823371Y-5173990D01*
X4830229Y-5177292D01*
X4840389Y-5180594D01*
X4857407Y-5180594D01*
X4867821Y-5177292D01*
X4874679Y-5173990D01*
X4881283Y-5167132D01*
X4884839Y-5160274D01*
X4884839Y-5146558D01*
X4881283Y-5139700D01*
X4874679Y-5133096D01*
X4867821Y-5129540D01*
X4857407Y-5126238D01*
X4840389Y-5126238D01*
X4830229Y-5129540D01*
X4823371Y-5133096D01*
X4816513Y-5139700D01*
X4813211Y-5146558D01*
X4813211Y-5160274D01*
X4813211Y-5096774D02*
G01*
X4813211Y-5059436D01*
X4840389Y-5079756D01*
X4840389Y-5069596D01*
X4843945Y-5062738D01*
X4847247Y-5059436D01*
X4857407Y-5055880D01*
X4864265Y-5055880D01*
X4874679Y-5059436D01*
X4881283Y-5066040D01*
X4884839Y-5076454D01*
X4884839Y-5086614D01*
X4881283Y-5096774D01*
X4877981Y-5100330D01*
X4871123Y-5103632D01*
X4813211Y-4999238D02*
G01*
X4860963Y-5033528D01*
X4860963Y-4982220D01*
X4813211Y-4999238D02*
G01*
X4884839Y-4999238D01*
X5067211Y-5179324D02*
G01*
X5138839Y-5179324D01*
X5067211Y-5203200D02*
G01*
X5067211Y-5155448D01*
X5067211Y-5133096D02*
G01*
X5138839Y-5133096D01*
X5067211Y-5133096D02*
G01*
X5138839Y-5105664D01*
X5067211Y-5078486D02*
G01*
X5138839Y-5105664D01*
X5067211Y-5078486D02*
G01*
X5138839Y-5078486D01*
X5077371Y-5008128D02*
G01*
X5070513Y-5014986D01*
X5067211Y-5025146D01*
X5067211Y-5038862D01*
X5070513Y-5049022D01*
X5077371Y-5055880D01*
X5084229Y-5055880D01*
X5091087Y-5052578D01*
X5094389Y-5049022D01*
X5097945Y-5042418D01*
X5104803Y-5021844D01*
X5108105Y-5014986D01*
X5111407Y-5011684D01*
X5118265Y-5008128D01*
X5128679Y-5008128D01*
X5135283Y-5014986D01*
X5138839Y-5025146D01*
X5138839Y-5038862D01*
X5135283Y-5049022D01*
X5128679Y-5055880D01*
X5321211Y-5203200D02*
G01*
X5392839Y-5203200D01*
X5321211Y-5203200D02*
G01*
X5392839Y-5155448D01*
X5321211Y-5155448D02*
G01*
X5392839Y-5155448D01*
X5338229Y-5081788D02*
G01*
X5331371Y-5085344D01*
X5324513Y-5091948D01*
X5321211Y-5098806D01*
X5321211Y-5112522D01*
X5324513Y-5119380D01*
X5331371Y-5126238D01*
X5338229Y-5129540D01*
X5348389Y-5133096D01*
X5365407Y-5133096D01*
X5375821Y-5129540D01*
X5382679Y-5126238D01*
X5389283Y-5119380D01*
X5392839Y-5112522D01*
X5392839Y-5098806D01*
X5389283Y-5091948D01*
X5382679Y-5085344D01*
X5375821Y-5081788D01*
X5585371Y-5155448D02*
G01*
X5578513Y-5162306D01*
X5575211Y-5172466D01*
X5575211Y-5186182D01*
X5578513Y-5196342D01*
X5585371Y-5203200D01*
X5592229Y-5203200D01*
X5599087Y-5199898D01*
X5602389Y-5196342D01*
X5605945Y-5189484D01*
X5612803Y-5169164D01*
X5616105Y-5162306D01*
X5619407Y-5159004D01*
X5626265Y-5155448D01*
X5636679Y-5155448D01*
X5643283Y-5162306D01*
X5646839Y-5172466D01*
X5646839Y-5186182D01*
X5643283Y-5196342D01*
X5636679Y-5203200D01*
X5575211Y-5133096D02*
G01*
X5646839Y-5133096D01*
X5575211Y-5133096D02*
G01*
X5575211Y-5109220D01*
X5578513Y-5098806D01*
X5585371Y-5091948D01*
X5592229Y-5088646D01*
X5602389Y-5085344D01*
X5619407Y-5085344D01*
X5629821Y-5088646D01*
X5636679Y-5091948D01*
X5643283Y-5098806D01*
X5646839Y-5109220D01*
X5646839Y-5133096D01*
X5592229Y-5059436D02*
G01*
X5588927Y-5059436D01*
X5582069Y-5055880D01*
X5578513Y-5052578D01*
X5575211Y-5045720D01*
X5575211Y-5032004D01*
X5578513Y-5025146D01*
X5582069Y-5021844D01*
X5588927Y-5018542D01*
X5595531Y-5018542D01*
X5602389Y-5021844D01*
X5612803Y-5028702D01*
X5646839Y-5062738D01*
X5646839Y-5014986D01*
X5846229Y-5152146D02*
G01*
X5839371Y-5155448D01*
X5832513Y-5162306D01*
X5829211Y-5169164D01*
X5829211Y-5182626D01*
X5832513Y-5189484D01*
X5839371Y-5196342D01*
X5846229Y-5199898D01*
X5856389Y-5203200D01*
X5873407Y-5203200D01*
X5883821Y-5199898D01*
X5890679Y-5196342D01*
X5897283Y-5189484D01*
X5900839Y-5182626D01*
X5900839Y-5169164D01*
X5897283Y-5162306D01*
X5890679Y-5155448D01*
X5883821Y-5152146D01*
X5829211Y-5129540D02*
G01*
X5900839Y-5129540D01*
X5829211Y-5129540D02*
G01*
X5900839Y-5102362D01*
X5829211Y-5074930D02*
G01*
X5900839Y-5102362D01*
X5829211Y-5074930D02*
G01*
X5900839Y-5074930D01*
X5829211Y-5052578D02*
G01*
X5900839Y-5052578D01*
X5829211Y-5052578D02*
G01*
X5829211Y-5028702D01*
X5832513Y-5018542D01*
X5839371Y-5011684D01*
X5846229Y-5008128D01*
X5856389Y-5004826D01*
X5873407Y-5004826D01*
X5883821Y-5008128D01*
X5890679Y-5011684D01*
X5897283Y-5018542D01*
X5900839Y-5028702D01*
X5900839Y-5052578D01*
X3575723Y-1672346D02*
G01*
X3568865Y-1675648D01*
X3562007Y-1682506D01*
X3558705Y-1689364D01*
X3558705Y-1702826D01*
X3562007Y-1709684D01*
X3568865Y-1716542D01*
X3575723Y-1720098D01*
X3585883Y-1723400D01*
X3602901Y-1723400D01*
X3613315Y-1720098D01*
X3620173Y-1716542D01*
X3626777Y-1709684D01*
X3630333Y-1702826D01*
X3630333Y-1689364D01*
X3626777Y-1682506D01*
X3620173Y-1675648D01*
X3613315Y-1672346D01*
X3602901Y-1672346D01*
X3602901Y-1689364D02*
G01*
X3602901Y-1672346D01*
X3558705Y-1649740D02*
G01*
X3630333Y-1649740D01*
X3558705Y-1649740D02*
G01*
X3630333Y-1601988D01*
X3558705Y-1601988D02*
G01*
X3630333Y-1601988D01*
X3558705Y-1579636D02*
G01*
X3630333Y-1579636D01*
X3558705Y-1579636D02*
G01*
X3558705Y-1555760D01*
X3562007Y-1545346D01*
X3568865Y-1538742D01*
X3575723Y-1535186D01*
X3585883Y-1531884D01*
X3602901Y-1531884D01*
X3613315Y-1535186D01*
X3620173Y-1538742D01*
X3626777Y-1545346D01*
X3630333Y-1555760D01*
X3630333Y-1579636D01*
X3797211Y-1723400D02*
G01*
X3868839Y-1723400D01*
X3797211Y-1680474D02*
G01*
X3800513Y-1687332D01*
X3807371Y-1694190D01*
X3814229Y-1697492D01*
X3824389Y-1700794D01*
X3841407Y-1700794D01*
X3851821Y-1697492D01*
X3858679Y-1694190D01*
X3865283Y-1687332D01*
X3868839Y-1680474D01*
X3868839Y-1666758D01*
X3865283Y-1659900D01*
X3858679Y-1653296D01*
X3851821Y-1649740D01*
X3841407Y-1646438D01*
X3824389Y-1646438D01*
X3814229Y-1649740D01*
X3807371Y-1653296D01*
X3800513Y-1659900D01*
X3797211Y-1666758D01*
X3797211Y-1680474D01*
X3814229Y-1620530D02*
G01*
X3810927Y-1620530D01*
X3804069Y-1616974D01*
X3800513Y-1613672D01*
X3797211Y-1606814D01*
X3797211Y-1593098D01*
X3800513Y-1586240D01*
X3804069Y-1582938D01*
X3810927Y-1579636D01*
X3817531Y-1579636D01*
X3824389Y-1582938D01*
X3834803Y-1589796D01*
X3868839Y-1623832D01*
X3868839Y-1576080D01*
X3797211Y-1505976D02*
G01*
X3868839Y-1540012D01*
X3797211Y-1553728D02*
G01*
X3797211Y-1505976D01*
X4051211Y-1723400D02*
G01*
X4122839Y-1723400D01*
X4051211Y-1680474D02*
G01*
X4054513Y-1687332D01*
X4061371Y-1694190D01*
X4068229Y-1697492D01*
X4078389Y-1700794D01*
X4095407Y-1700794D01*
X4105821Y-1697492D01*
X4112679Y-1694190D01*
X4119283Y-1687332D01*
X4122839Y-1680474D01*
X4122839Y-1666758D01*
X4119283Y-1659900D01*
X4112679Y-1653296D01*
X4105821Y-1649740D01*
X4095407Y-1646438D01*
X4078389Y-1646438D01*
X4068229Y-1649740D01*
X4061371Y-1653296D01*
X4054513Y-1659900D01*
X4051211Y-1666758D01*
X4051211Y-1680474D01*
X4068229Y-1620530D02*
G01*
X4064927Y-1620530D01*
X4058069Y-1616974D01*
X4054513Y-1613672D01*
X4051211Y-1606814D01*
X4051211Y-1593098D01*
X4054513Y-1586240D01*
X4058069Y-1582938D01*
X4064927Y-1579636D01*
X4071531Y-1579636D01*
X4078389Y-1582938D01*
X4088803Y-1589796D01*
X4122839Y-1623832D01*
X4122839Y-1576080D01*
X4051211Y-1512834D02*
G01*
X4051211Y-1546870D01*
X4081945Y-1550172D01*
X4078389Y-1546870D01*
X4075087Y-1536456D01*
X4075087Y-1526296D01*
X4078389Y-1516136D01*
X4085247Y-1509278D01*
X4095407Y-1505976D01*
X4102265Y-1505976D01*
X4112679Y-1509278D01*
X4119283Y-1516136D01*
X4122839Y-1526296D01*
X4122839Y-1536456D01*
X4119283Y-1546870D01*
X4115981Y-1550172D01*
X4109123Y-1553728D01*
X4305211Y-1723400D02*
G01*
X4376839Y-1723400D01*
X4305211Y-1680474D02*
G01*
X4308513Y-1687332D01*
X4315371Y-1694190D01*
X4322229Y-1697492D01*
X4332389Y-1700794D01*
X4349407Y-1700794D01*
X4359821Y-1697492D01*
X4366679Y-1694190D01*
X4373283Y-1687332D01*
X4376839Y-1680474D01*
X4376839Y-1666758D01*
X4373283Y-1659900D01*
X4366679Y-1653296D01*
X4359821Y-1649740D01*
X4349407Y-1646438D01*
X4332389Y-1646438D01*
X4322229Y-1649740D01*
X4315371Y-1653296D01*
X4308513Y-1659900D01*
X4305211Y-1666758D01*
X4305211Y-1680474D01*
X4305211Y-1616974D02*
G01*
X4305211Y-1579636D01*
X4332389Y-1599956D01*
X4332389Y-1589796D01*
X4335945Y-1582938D01*
X4339247Y-1579636D01*
X4349407Y-1576080D01*
X4356265Y-1576080D01*
X4366679Y-1579636D01*
X4373283Y-1586240D01*
X4376839Y-1596654D01*
X4376839Y-1606814D01*
X4373283Y-1616974D01*
X4369981Y-1620530D01*
X4363123Y-1623832D01*
X4322229Y-1550172D02*
G01*
X4318927Y-1550172D01*
X4312069Y-1546870D01*
X4308513Y-1543314D01*
X4305211Y-1536456D01*
X4305211Y-1522994D01*
X4308513Y-1516136D01*
X4312069Y-1512834D01*
X4318927Y-1509278D01*
X4325531Y-1509278D01*
X4332389Y-1512834D01*
X4342803Y-1519438D01*
X4376839Y-1553728D01*
X4376839Y-1505976D01*
X4559211Y-1699524D02*
G01*
X4630839Y-1699524D01*
X4559211Y-1723400D02*
G01*
X4559211Y-1675648D01*
X4559211Y-1653296D02*
G01*
X4630839Y-1653296D01*
X4559211Y-1653296D02*
G01*
X4559211Y-1629420D01*
X4562513Y-1619006D01*
X4569371Y-1612148D01*
X4576229Y-1608846D01*
X4586389Y-1605544D01*
X4603407Y-1605544D01*
X4613821Y-1608846D01*
X4620679Y-1612148D01*
X4627283Y-1619006D01*
X4630839Y-1629420D01*
X4630839Y-1653296D01*
X4559211Y-1582938D02*
G01*
X4630839Y-1582938D01*
X4813211Y-1723400D02*
G01*
X4884839Y-1723400D01*
X4813211Y-1680474D02*
G01*
X4816513Y-1687332D01*
X4823371Y-1694190D01*
X4830229Y-1697492D01*
X4840389Y-1700794D01*
X4857407Y-1700794D01*
X4867821Y-1697492D01*
X4874679Y-1694190D01*
X4881283Y-1687332D01*
X4884839Y-1680474D01*
X4884839Y-1666758D01*
X4881283Y-1659900D01*
X4874679Y-1653296D01*
X4867821Y-1649740D01*
X4857407Y-1646438D01*
X4840389Y-1646438D01*
X4830229Y-1649740D01*
X4823371Y-1653296D01*
X4816513Y-1659900D01*
X4813211Y-1666758D01*
X4813211Y-1680474D01*
X4813211Y-1589796D02*
G01*
X4860963Y-1623832D01*
X4860963Y-1572778D01*
X4813211Y-1589796D02*
G01*
X4884839Y-1589796D01*
X5067211Y-1723400D02*
G01*
X5138839Y-1723400D01*
X5067211Y-1680474D02*
G01*
X5070513Y-1687332D01*
X5077371Y-1694190D01*
X5084229Y-1697492D01*
X5094389Y-1700794D01*
X5111407Y-1700794D01*
X5121821Y-1697492D01*
X5128679Y-1694190D01*
X5135283Y-1687332D01*
X5138839Y-1680474D01*
X5138839Y-1666758D01*
X5135283Y-1659900D01*
X5128679Y-1653296D01*
X5121821Y-1649740D01*
X5111407Y-1646438D01*
X5094389Y-1646438D01*
X5084229Y-1649740D01*
X5077371Y-1653296D01*
X5070513Y-1659900D01*
X5067211Y-1666758D01*
X5067211Y-1680474D01*
X5067211Y-1603512D02*
G01*
X5070513Y-1613672D01*
X5080927Y-1620530D01*
X5097945Y-1623832D01*
X5108105Y-1623832D01*
X5125123Y-1620530D01*
X5135283Y-1613672D01*
X5138839Y-1603512D01*
X5138839Y-1596654D01*
X5135283Y-1586240D01*
X5125123Y-1579636D01*
X5108105Y-1576080D01*
X5097945Y-1576080D01*
X5080927Y-1579636D01*
X5070513Y-1586240D01*
X5067211Y-1596654D01*
X5067211Y-1603512D01*
X5321211Y-1723400D02*
G01*
X5392839Y-1723400D01*
X5321211Y-1680474D02*
G01*
X5324513Y-1687332D01*
X5331371Y-1694190D01*
X5338229Y-1697492D01*
X5348389Y-1700794D01*
X5365407Y-1700794D01*
X5375821Y-1697492D01*
X5382679Y-1694190D01*
X5389283Y-1687332D01*
X5392839Y-1680474D01*
X5392839Y-1666758D01*
X5389283Y-1659900D01*
X5382679Y-1653296D01*
X5375821Y-1649740D01*
X5365407Y-1646438D01*
X5348389Y-1646438D01*
X5338229Y-1649740D01*
X5331371Y-1653296D01*
X5324513Y-1659900D01*
X5321211Y-1666758D01*
X5321211Y-1680474D01*
X5338229Y-1620530D02*
G01*
X5334927Y-1620530D01*
X5328069Y-1616974D01*
X5324513Y-1613672D01*
X5321211Y-1606814D01*
X5321211Y-1593098D01*
X5324513Y-1586240D01*
X5328069Y-1582938D01*
X5334927Y-1579636D01*
X5341531Y-1579636D01*
X5348389Y-1582938D01*
X5358803Y-1589796D01*
X5392839Y-1623832D01*
X5392839Y-1576080D01*
X5575211Y-1699524D02*
G01*
X5646839Y-1699524D01*
X5575211Y-1723400D02*
G01*
X5575211Y-1675648D01*
X5575211Y-1653296D02*
G01*
X5646839Y-1653296D01*
X5575211Y-1653296D02*
G01*
X5575211Y-1629420D01*
X5578513Y-1619006D01*
X5585371Y-1612148D01*
X5592229Y-1608846D01*
X5602389Y-1605544D01*
X5619407Y-1605544D01*
X5629821Y-1608846D01*
X5636679Y-1612148D01*
X5643283Y-1619006D01*
X5646839Y-1629420D01*
X5646839Y-1653296D01*
X5575211Y-1582938D02*
G01*
X5646839Y-1582938D01*
X5846229Y-1672346D02*
G01*
X5839371Y-1675648D01*
X5832513Y-1682506D01*
X5829211Y-1689364D01*
X5829211Y-1702826D01*
X5832513Y-1709684D01*
X5839371Y-1716542D01*
X5846229Y-1720098D01*
X5856389Y-1723400D01*
X5873407Y-1723400D01*
X5883821Y-1720098D01*
X5890679Y-1716542D01*
X5897283Y-1709684D01*
X5900839Y-1702826D01*
X5900839Y-1689364D01*
X5897283Y-1682506D01*
X5890679Y-1675648D01*
X5883821Y-1672346D01*
X5829211Y-1649740D02*
G01*
X5900839Y-1649740D01*
X5900839Y-1649740D02*
G01*
X5900839Y-1608846D01*
X5829211Y-1586240D02*
G01*
X5900839Y-1586240D01*
X5829211Y-1538742D02*
G01*
X5876963Y-1586240D01*
X5859945Y-1569222D02*
G01*
X5900839Y-1538742D01*
X3270161Y-3793500D02*
G01*
X3365665Y-3793500D01*
X3270161Y-3793500D02*
G01*
X3270161Y-3734318D01*
X3315627Y-3793500D02*
G01*
X3315627Y-3757178D01*
X3365665Y-3793500D02*
G01*
X3365665Y-3734318D01*
X3283623Y-3640846D02*
G01*
X3274733Y-3649990D01*
X3270161Y-3663452D01*
X3270161Y-3681740D01*
X3274733Y-3695202D01*
X3283623Y-3704346D01*
X3292767Y-3704346D01*
X3301911Y-3699774D01*
X3306483Y-3695202D01*
X3311055Y-3686312D01*
X3320199Y-3658880D01*
X3324517Y-3649990D01*
X3329089Y-3645418D01*
X3338233Y-3640846D01*
X3351949Y-3640846D01*
X3361093Y-3649990D01*
X3365665Y-3663452D01*
X3365665Y-3681740D01*
X3361093Y-3695202D01*
X3351949Y-3704346D01*
X3270161Y-3610874D02*
G01*
X3365665Y-3610874D01*
X3270161Y-3610874D02*
G01*
X3270161Y-3569980D01*
X3274733Y-3556264D01*
X3279305Y-3551692D01*
X3288195Y-3547120D01*
X3301911Y-3547120D01*
X3311055Y-3551692D01*
X3315627Y-3556264D01*
X3320199Y-3569980D01*
X3320199Y-3610874D01*
X3270161Y-3508004D02*
G01*
X3270161Y-3457966D01*
X3306483Y-3485398D01*
X3306483Y-3471682D01*
X3311055Y-3462538D01*
X3315627Y-3457966D01*
X3329089Y-3453394D01*
X3338233Y-3453394D01*
X3351949Y-3457966D01*
X3361093Y-3467110D01*
X3365665Y-3480826D01*
X3365665Y-3494288D01*
X3361093Y-3508004D01*
X3356521Y-3512576D01*
X3347377Y-3517148D01*
X3292767Y-3418850D02*
G01*
X3288195Y-3418850D01*
X3279305Y-3414532D01*
X3274733Y-3409960D01*
X3270161Y-3400816D01*
X3270161Y-3382528D01*
X3274733Y-3373384D01*
X3279305Y-3369066D01*
X3288195Y-3364494D01*
X3297339Y-3364494D01*
X3306483Y-3369066D01*
X3320199Y-3377956D01*
X3365665Y-3423422D01*
X3365665Y-3359922D01*
X3301911Y-3259846D02*
G01*
X3365665Y-3241558D01*
X3301911Y-3223524D02*
G01*
X3365665Y-3241558D01*
X3301911Y-3223524D02*
G01*
X3365665Y-3205236D01*
X3301911Y-3187202D02*
G01*
X3365665Y-3205236D01*
X3301911Y-3157230D02*
G01*
X3365665Y-3157230D01*
X3329089Y-3157230D02*
G01*
X3315627Y-3152658D01*
X3306483Y-3143514D01*
X3301911Y-3134370D01*
X3301911Y-3120654D01*
X3301911Y-3068076D02*
G01*
X3306483Y-3077220D01*
X3315627Y-3086110D01*
X3329089Y-3090682D01*
X3338233Y-3090682D01*
X3351949Y-3086110D01*
X3361093Y-3077220D01*
X3365665Y-3068076D01*
X3365665Y-3054360D01*
X3361093Y-3045216D01*
X3351949Y-3036326D01*
X3338233Y-3031754D01*
X3329089Y-3031754D01*
X3315627Y-3036326D01*
X3306483Y-3045216D01*
X3301911Y-3054360D01*
X3301911Y-3068076D01*
X3301911Y-2978922D02*
G01*
X3306483Y-2988066D01*
X3315627Y-2997210D01*
X3329089Y-3001782D01*
X3338233Y-3001782D01*
X3351949Y-2997210D01*
X3361093Y-2988066D01*
X3365665Y-2978922D01*
X3365665Y-2965206D01*
X3361093Y-2956316D01*
X3351949Y-2947172D01*
X3338233Y-2942600D01*
X3329089Y-2942600D01*
X3315627Y-2947172D01*
X3306483Y-2956316D01*
X3301911Y-2965206D01*
X3301911Y-2978922D01*
X3301911Y-2912628D02*
G01*
X3365665Y-2912628D01*
X3320199Y-2912628D02*
G01*
X3306483Y-2898912D01*
X3301911Y-2889768D01*
X3301911Y-2876306D01*
X3306483Y-2867162D01*
X3320199Y-2862590D01*
X3365665Y-2862590D01*
X3320199Y-2862590D02*
G01*
X3306483Y-2848874D01*
X3301911Y-2839984D01*
X3301911Y-2826268D01*
X3306483Y-2817124D01*
X3320199Y-2812552D01*
X3365665Y-2812552D01*
X3620427Y-3613792D02*
G01*
X3696881Y-3613792D01*
X3620427Y-3613792D02*
G01*
X3620427Y-3566548D01*
X3656749Y-3613792D02*
G01*
X3656749Y-3584582D01*
X3696881Y-3613792D02*
G01*
X3696881Y-3566548D01*
X3631349Y-3491618D02*
G01*
X3623983Y-3498984D01*
X3620427Y-3509906D01*
X3620427Y-3524384D01*
X3623983Y-3535306D01*
X3631349Y-3542418D01*
X3638715Y-3542418D01*
X3645827Y-3538862D01*
X3649637Y-3535306D01*
X3653193Y-3527940D01*
X3660559Y-3506096D01*
X3664115Y-3498984D01*
X3667671Y-3495174D01*
X3675037Y-3491618D01*
X3685959Y-3491618D01*
X3693325Y-3498984D01*
X3696881Y-3509906D01*
X3696881Y-3524384D01*
X3693325Y-3535306D01*
X3685959Y-3542418D01*
X3620427Y-3467488D02*
G01*
X3696881Y-3467488D01*
X3620427Y-3467488D02*
G01*
X3620427Y-3434976D01*
X3623983Y-3424054D01*
X3627793Y-3420244D01*
X3634905Y-3416688D01*
X3645827Y-3416688D01*
X3653193Y-3420244D01*
X3656749Y-3424054D01*
X3660559Y-3434976D01*
X3660559Y-3467488D01*
X3620427Y-3318644D02*
G01*
X3623983Y-3329312D01*
X3631349Y-3333122D01*
X3638715Y-3333122D01*
X3645827Y-3329312D01*
X3649637Y-3322200D01*
X3653193Y-3307722D01*
X3656749Y-3296800D01*
X3664115Y-3289434D01*
X3671481Y-3285878D01*
X3682403Y-3285878D01*
X3689515Y-3289434D01*
X3693325Y-3292990D01*
X3696881Y-3303912D01*
X3696881Y-3318644D01*
X3693325Y-3329312D01*
X3689515Y-3333122D01*
X3682403Y-3336678D01*
X3671481Y-3336678D01*
X3664115Y-3333122D01*
X3656749Y-3325756D01*
X3653193Y-3314834D01*
X3649637Y-3300356D01*
X3645827Y-3292990D01*
X3638715Y-3289434D01*
X3631349Y-3289434D01*
X3623983Y-3292990D01*
X3620427Y-3303912D01*
X3620427Y-3318644D01*
X3638715Y-3258192D02*
G01*
X3634905Y-3258192D01*
X3627793Y-3254636D01*
X3623983Y-3250826D01*
X3620427Y-3243714D01*
X3620427Y-3228982D01*
X3623983Y-3221870D01*
X3627793Y-3218060D01*
X3634905Y-3214504D01*
X3642271Y-3214504D01*
X3649637Y-3218060D01*
X3660559Y-3225426D01*
X3696881Y-3261748D01*
X3696881Y-3210948D01*
X3631349Y-3143130D02*
G01*
X3623983Y-3146940D01*
X3620427Y-3157862D01*
X3620427Y-3164974D01*
X3623983Y-3175896D01*
X3634905Y-3183262D01*
X3653193Y-3186818D01*
X3671481Y-3186818D01*
X3685959Y-3183262D01*
X3693325Y-3175896D01*
X3696881Y-3164974D01*
X3696881Y-3161418D01*
X3693325Y-3150496D01*
X3685959Y-3143130D01*
X3675037Y-3139574D01*
X3671481Y-3139574D01*
X3660559Y-3143130D01*
X3653193Y-3150496D01*
X3649637Y-3161418D01*
X3649637Y-3164974D01*
X3653193Y-3175896D01*
X3660559Y-3183262D01*
X3671481Y-3186818D01*
X3631349Y-3072010D02*
G01*
X3623983Y-3075566D01*
X3620427Y-3086488D01*
X3620427Y-3093854D01*
X3623983Y-3104776D01*
X3634905Y-3111888D01*
X3653193Y-3115698D01*
X3671481Y-3115698D01*
X3685959Y-3111888D01*
X3693325Y-3104776D01*
X3696881Y-3093854D01*
X3696881Y-3090044D01*
X3693325Y-3079122D01*
X3685959Y-3072010D01*
X3675037Y-3068454D01*
X3671481Y-3068454D01*
X3660559Y-3072010D01*
X3653193Y-3079122D01*
X3649637Y-3090044D01*
X3649637Y-3093854D01*
X3653193Y-3104776D01*
X3660559Y-3111888D01*
X3671481Y-3115698D01*
X3544227Y-3984000D02*
G01*
X3620681Y-3984000D01*
X3544227Y-3984000D02*
G01*
X3544227Y-3951234D01*
X3547783Y-3940312D01*
X3551593Y-3936756D01*
X3558705Y-3933200D01*
X3566071Y-3933200D01*
X3573437Y-3936756D01*
X3576993Y-3940312D01*
X3580549Y-3951234D01*
X3580549Y-3984000D01*
X3580549Y-3958600D02*
G01*
X3620681Y-3933200D01*
X3555149Y-3858270D02*
G01*
X3547783Y-3865382D01*
X3544227Y-3876304D01*
X3544227Y-3891036D01*
X3547783Y-3901704D01*
X3555149Y-3909070D01*
X3562515Y-3909070D01*
X3569627Y-3905514D01*
X3573437Y-3901704D01*
X3576993Y-3894592D01*
X3584359Y-3872748D01*
X3587915Y-3865382D01*
X3591471Y-3861826D01*
X3598837Y-3858270D01*
X3609759Y-3858270D01*
X3617125Y-3865382D01*
X3620681Y-3876304D01*
X3620681Y-3891036D01*
X3617125Y-3901704D01*
X3609759Y-3909070D01*
X3544227Y-3808740D02*
G01*
X3620681Y-3808740D01*
X3544227Y-3834140D02*
G01*
X3544227Y-3783340D01*
X3798227Y-3954790D02*
G01*
X3874681Y-3984000D01*
X3798227Y-3954790D02*
G01*
X3874681Y-3925834D01*
X3849281Y-3973078D02*
G01*
X3849281Y-3936756D01*
X3798227Y-3880114D02*
G01*
X3801783Y-3891036D01*
X3812705Y-3898148D01*
X3830993Y-3901704D01*
X3841915Y-3901704D01*
X3860203Y-3898148D01*
X3871125Y-3891036D01*
X3874681Y-3880114D01*
X3874681Y-3872748D01*
X3871125Y-3861826D01*
X3860203Y-3854460D01*
X3841915Y-3850904D01*
X3830993Y-3850904D01*
X3812705Y-3854460D01*
X3801783Y-3861826D01*
X3798227Y-3872748D01*
X3798227Y-3880114D01*
X4306227Y-3984000D02*
G01*
X4382681Y-3984000D01*
X4306227Y-3984000D02*
G01*
X4306227Y-3958600D01*
X4309783Y-3947678D01*
X4317149Y-3940312D01*
X4324515Y-3936756D01*
X4335437Y-3933200D01*
X4353471Y-3933200D01*
X4364393Y-3936756D01*
X4371759Y-3940312D01*
X4379125Y-3947678D01*
X4382681Y-3958600D01*
X4382681Y-3984000D01*
X4306227Y-3865382D02*
G01*
X4306227Y-3901704D01*
X4338993Y-3905514D01*
X4335437Y-3901704D01*
X4331627Y-3891036D01*
X4331627Y-3880114D01*
X4335437Y-3869192D01*
X4342549Y-3861826D01*
X4353471Y-3858270D01*
X4360837Y-3858270D01*
X4371759Y-3861826D01*
X4379125Y-3869192D01*
X4382681Y-3880114D01*
X4382681Y-3891036D01*
X4379125Y-3901704D01*
X4375315Y-3905514D01*
X4368203Y-3909070D01*
X4560227Y-3984000D02*
G01*
X4636681Y-3984000D01*
X4560227Y-3984000D02*
G01*
X4560227Y-3958600D01*
X4563783Y-3947678D01*
X4571149Y-3940312D01*
X4578515Y-3936756D01*
X4589437Y-3933200D01*
X4607471Y-3933200D01*
X4618393Y-3936756D01*
X4625759Y-3940312D01*
X4633125Y-3947678D01*
X4636681Y-3958600D01*
X4636681Y-3984000D01*
X4571149Y-3865382D02*
G01*
X4563783Y-3869192D01*
X4560227Y-3880114D01*
X4560227Y-3887226D01*
X4563783Y-3898148D01*
X4574705Y-3905514D01*
X4592993Y-3909070D01*
X4611281Y-3909070D01*
X4625759Y-3905514D01*
X4633125Y-3898148D01*
X4636681Y-3887226D01*
X4636681Y-3883670D01*
X4633125Y-3872748D01*
X4625759Y-3865382D01*
X4614837Y-3861826D01*
X4611281Y-3861826D01*
X4600359Y-3865382D01*
X4592993Y-3872748D01*
X4589437Y-3883670D01*
X4589437Y-3887226D01*
X4592993Y-3898148D01*
X4600359Y-3905514D01*
X4611281Y-3909070D01*
X4814227Y-3984000D02*
G01*
X4890681Y-3984000D01*
X4814227Y-3984000D02*
G01*
X4814227Y-3958600D01*
X4817783Y-3947678D01*
X4825149Y-3940312D01*
X4832515Y-3936756D01*
X4843437Y-3933200D01*
X4861471Y-3933200D01*
X4872393Y-3936756D01*
X4879759Y-3940312D01*
X4887125Y-3947678D01*
X4890681Y-3958600D01*
X4890681Y-3984000D01*
X4814227Y-3858270D02*
G01*
X4890681Y-3894592D01*
X4814227Y-3909070D02*
G01*
X4814227Y-3858270D01*
X5062727Y-3987800D02*
G01*
X5139181Y-3987800D01*
X5062727Y-3987800D02*
G01*
X5062727Y-3962400D01*
X5066284Y-3951478D01*
X5073650Y-3944112D01*
X5081015Y-3940555D01*
X5091938Y-3937000D01*
X5109972Y-3937000D01*
X5120893Y-3940555D01*
X5128259Y-3944112D01*
X5135625Y-3951478D01*
X5139181Y-3962400D01*
X5139181Y-3987800D01*
X5062727Y-3894836D02*
G01*
X5066284Y-3905504D01*
X5073650Y-3909313D01*
X5081015Y-3909313D01*
X5088127Y-3905504D01*
X5091938Y-3898392D01*
X5095493Y-3883913D01*
X5099050Y-3872992D01*
X5106415Y-3865626D01*
X5113781Y-3862070D01*
X5124704Y-3862070D01*
X5131815Y-3865626D01*
X5135625Y-3869181D01*
X5139181Y-3880104D01*
X5139181Y-3894836D01*
X5135625Y-3905504D01*
X5131815Y-3909313D01*
X5124704Y-3912870D01*
X5113781Y-3912870D01*
X5106415Y-3909313D01*
X5099050Y-3901947D01*
X5095493Y-3891026D01*
X5091938Y-3876547D01*
X5088127Y-3869181D01*
X5081015Y-3865626D01*
X5073650Y-3865626D01*
X5066284Y-3869181D01*
X5062727Y-3880104D01*
X5062727Y-3894836D01*
X4052227Y-3984000D02*
G01*
X4128681Y-3984000D01*
X4052227Y-3984000D02*
G01*
X4052227Y-3958600D01*
X4055783Y-3947678D01*
X4063149Y-3940312D01*
X4070515Y-3936756D01*
X4081437Y-3933200D01*
X4099471Y-3933200D01*
X4110393Y-3936756D01*
X4117759Y-3940312D01*
X4125125Y-3947678D01*
X4128681Y-3958600D01*
X4128681Y-3984000D01*
X4052227Y-3887226D02*
G01*
X4055783Y-3898148D01*
X4066705Y-3905514D01*
X4084993Y-3909070D01*
X4095915Y-3909070D01*
X4114203Y-3905514D01*
X4125125Y-3898148D01*
X4128681Y-3887226D01*
X4128681Y-3880114D01*
X4125125Y-3869192D01*
X4114203Y-3861826D01*
X4095915Y-3858270D01*
X4084993Y-3858270D01*
X4066705Y-3861826D01*
X4055783Y-3869192D01*
X4052227Y-3880114D01*
X4052227Y-3887226D01*
X5322227Y-3976634D02*
G01*
X5322227Y-3936756D01*
X5351437Y-3958600D01*
X5351437Y-3947678D01*
X5354993Y-3940312D01*
X5358549Y-3936756D01*
X5369471Y-3933200D01*
X5376837Y-3933200D01*
X5387759Y-3936756D01*
X5395125Y-3944122D01*
X5398681Y-3954790D01*
X5398681Y-3965712D01*
X5395125Y-3976634D01*
X5391315Y-3980444D01*
X5384203Y-3984000D01*
X5322227Y-3909070D02*
G01*
X5398681Y-3880114D01*
X5322227Y-3850904D02*
G01*
X5398681Y-3880114D01*
X5322227Y-3819662D02*
G01*
X5322227Y-3779530D01*
X5351437Y-3801374D01*
X5351437Y-3790452D01*
X5354993Y-3783340D01*
X5358549Y-3779530D01*
X5369471Y-3775974D01*
X5376837Y-3775974D01*
X5387759Y-3779530D01*
X5395125Y-3786896D01*
X5398681Y-3797818D01*
X5398681Y-3808740D01*
X5395125Y-3819662D01*
X5391315Y-3823218D01*
X5384203Y-3827028D01*
X3569627Y-2790200D02*
G01*
X3646081Y-2790200D01*
X3569627Y-2815600D02*
G01*
X3569627Y-2764800D01*
X3569627Y-2740670D02*
G01*
X3646081Y-2689870D01*
X3569627Y-2689870D02*
G01*
X3646081Y-2740670D01*
X3823627Y-2815600D02*
G01*
X3900081Y-2815600D01*
X3823627Y-2815600D02*
G01*
X3823627Y-2782834D01*
X3827183Y-2771912D01*
X3830993Y-2768356D01*
X3838105Y-2764800D01*
X3845471Y-2764800D01*
X3852837Y-2768356D01*
X3856393Y-2771912D01*
X3859949Y-2782834D01*
X3859949Y-2815600D01*
X3859949Y-2790200D02*
G01*
X3900081Y-2764800D01*
X3823627Y-2740670D02*
G01*
X3900081Y-2689870D01*
X3823627Y-2689870D02*
G01*
X3900081Y-2740670D01*
X4077627Y-2815600D02*
G01*
X4154081Y-2815600D01*
X4077627Y-2815600D02*
G01*
X4077627Y-2790200D01*
X4081183Y-2779278D01*
X4088549Y-2771912D01*
X4095915Y-2768356D01*
X4106837Y-2764800D01*
X4124871Y-2764800D01*
X4135793Y-2768356D01*
X4143159Y-2771912D01*
X4150525Y-2779278D01*
X4154081Y-2790200D01*
X4154081Y-2815600D01*
X4092105Y-2740670D02*
G01*
X4088549Y-2733304D01*
X4077627Y-2722636D01*
X4154081Y-2722636D01*
X4331627Y-2815600D02*
G01*
X4408081Y-2815600D01*
X4331627Y-2815600D02*
G01*
X4331627Y-2790200D01*
X4335183Y-2779278D01*
X4342549Y-2771912D01*
X4349915Y-2768356D01*
X4360837Y-2764800D01*
X4378871Y-2764800D01*
X4389793Y-2768356D01*
X4397159Y-2771912D01*
X4404525Y-2779278D01*
X4408081Y-2790200D01*
X4408081Y-2815600D01*
X4349915Y-2737114D02*
G01*
X4346105Y-2737114D01*
X4338993Y-2733304D01*
X4335183Y-2729748D01*
X4331627Y-2722636D01*
X4331627Y-2707904D01*
X4335183Y-2700792D01*
X4338993Y-2696982D01*
X4346105Y-2693426D01*
X4353471Y-2693426D01*
X4360837Y-2696982D01*
X4371759Y-2704348D01*
X4408081Y-2740670D01*
X4408081Y-2689870D01*
X4560227Y-2815600D02*
G01*
X4636681Y-2815600D01*
X4560227Y-2815600D02*
G01*
X4560227Y-2790200D01*
X4563783Y-2779278D01*
X4571149Y-2771912D01*
X4578515Y-2768356D01*
X4589437Y-2764800D01*
X4607471Y-2764800D01*
X4618393Y-2768356D01*
X4625759Y-2771912D01*
X4633125Y-2779278D01*
X4636681Y-2790200D01*
X4636681Y-2815600D01*
X4560227Y-2733304D02*
G01*
X4560227Y-2693426D01*
X4589437Y-2715270D01*
X4589437Y-2704348D01*
X4592993Y-2696982D01*
X4596549Y-2693426D01*
X4607471Y-2689870D01*
X4614837Y-2689870D01*
X4625759Y-2693426D01*
X4633125Y-2700792D01*
X4636681Y-2711714D01*
X4636681Y-2722636D01*
X4633125Y-2733304D01*
X4629315Y-2737114D01*
X4622203Y-2740670D01*
X4814227Y-2815600D02*
G01*
X4890681Y-2815600D01*
X4814227Y-2815600D02*
G01*
X4814227Y-2790200D01*
X4817783Y-2779278D01*
X4825149Y-2771912D01*
X4832515Y-2768356D01*
X4843437Y-2764800D01*
X4861471Y-2764800D01*
X4872393Y-2768356D01*
X4879759Y-2771912D01*
X4887125Y-2779278D01*
X4890681Y-2790200D01*
X4890681Y-2815600D01*
X4814227Y-2704348D02*
G01*
X4865281Y-2740670D01*
X4865281Y-2686060D01*
X4814227Y-2704348D02*
G01*
X4890681Y-2704348D01*
X5086515Y-2760990D02*
G01*
X5079149Y-2764800D01*
X5071783Y-2771912D01*
X5068227Y-2779278D01*
X5068227Y-2793756D01*
X5071783Y-2801122D01*
X5079149Y-2808234D01*
X5086515Y-2812044D01*
X5097437Y-2815600D01*
X5115471Y-2815600D01*
X5126393Y-2812044D01*
X5133759Y-2808234D01*
X5141125Y-2801122D01*
X5144681Y-2793756D01*
X5144681Y-2779278D01*
X5141125Y-2771912D01*
X5133759Y-2764800D01*
X5126393Y-2760990D01*
X5115471Y-2760990D01*
X5115471Y-2779278D02*
G01*
X5115471Y-2760990D01*
X5068227Y-2737114D02*
G01*
X5144681Y-2737114D01*
X5068227Y-2737114D02*
G01*
X5144681Y-2686060D01*
X5068227Y-2686060D02*
G01*
X5144681Y-2686060D01*
X5068227Y-2662184D02*
G01*
X5144681Y-2662184D01*
X5068227Y-2662184D02*
G01*
X5068227Y-2636784D01*
X5071783Y-2625862D01*
X5079149Y-2618496D01*
X5086515Y-2614940D01*
X5097437Y-2611130D01*
X5115471Y-2611130D01*
X5126393Y-2614940D01*
X5133759Y-2618496D01*
X5141125Y-2625862D01*
X5144681Y-2636784D01*
X5144681Y-2662184D01*
X5322227Y-2771912D02*
G01*
X5322227Y-2808234D01*
X5354993Y-2812044D01*
X5351437Y-2808234D01*
X5347627Y-2797312D01*
X5347627Y-2786390D01*
X5351437Y-2775722D01*
X5358549Y-2768356D01*
X5369471Y-2764800D01*
X5376837Y-2764800D01*
X5387759Y-2768356D01*
X5395125Y-2775722D01*
X5398681Y-2786390D01*
X5398681Y-2797312D01*
X5395125Y-2808234D01*
X5391315Y-2812044D01*
X5384203Y-2815600D01*
X5322227Y-2740670D02*
G01*
X5398681Y-2711714D01*
X5322227Y-2682504D02*
G01*
X5398681Y-2711714D01*
D19*
X5361343Y-3628400D02*
G01*
X5413413Y-3628400D01*
X5423827Y-3624844D01*
X5430685Y-3617986D01*
X5434241Y-3607572D01*
X5434241Y-3600714D01*
X5430685Y-3590300D01*
X5423827Y-3583442D01*
X5413413Y-3579886D01*
X5361343Y-3579886D01*
X5371757Y-3508512D02*
G01*
X5364899Y-3515370D01*
X5361343Y-3525784D01*
X5361343Y-3539754D01*
X5364899Y-3550168D01*
X5371757Y-3557026D01*
X5378869Y-3557026D01*
X5385727Y-3553470D01*
X5389029Y-3550168D01*
X5392585Y-3543310D01*
X5399443Y-3522482D01*
X5402999Y-3515370D01*
X5406555Y-3512068D01*
X5413413Y-3508512D01*
X5423827Y-3508512D01*
X5430685Y-3515370D01*
X5434241Y-3525784D01*
X5434241Y-3539754D01*
X5430685Y-3550168D01*
X5423827Y-3557026D01*
X5361343Y-3485652D02*
G01*
X5434241Y-3485652D01*
X5361343Y-3485652D02*
G01*
X5361343Y-3454410D01*
X5364899Y-3444250D01*
X5368455Y-3440694D01*
X5375313Y-3437138D01*
X5382171Y-3437138D01*
X5389029Y-3440694D01*
X5392585Y-3444250D01*
X5396141Y-3454410D01*
X5396141Y-3485652D02*
G01*
X5396141Y-3454410D01*
X5399443Y-3444250D01*
X5402999Y-3440694D01*
X5409857Y-3437138D01*
X5420271Y-3437138D01*
X5427129Y-3440694D01*
X5430685Y-3444250D01*
X5434241Y-3454410D01*
X5434241Y-3485652D01*
X5361343Y-3360938D02*
G01*
X5434241Y-3360938D01*
X5361343Y-3360938D02*
G01*
X5434241Y-3333252D01*
X5361343Y-3305566D02*
G01*
X5434241Y-3333252D01*
X5361343Y-3305566D02*
G01*
X5434241Y-3305566D01*
X5361343Y-3282706D02*
G01*
X5434241Y-3282706D01*
X5378869Y-3208030D02*
G01*
X5371757Y-3211332D01*
X5364899Y-3218190D01*
X5361343Y-3225302D01*
X5361343Y-3239018D01*
X5364899Y-3246130D01*
X5371757Y-3252988D01*
X5378869Y-3256290D01*
X5389029Y-3259846D01*
X5406555Y-3259846D01*
X5416969Y-3256290D01*
X5423827Y-3252988D01*
X5430685Y-3246130D01*
X5434241Y-3239018D01*
X5434241Y-3225302D01*
X5430685Y-3218190D01*
X5423827Y-3211332D01*
X5416969Y-3208030D01*
X5361343Y-3185170D02*
G01*
X5434241Y-3185170D01*
X5361343Y-3185170D02*
G01*
X5361343Y-3153928D01*
X5364899Y-3143514D01*
X5368455Y-3139958D01*
X5375313Y-3136656D01*
X5382171Y-3136656D01*
X5389029Y-3139958D01*
X5392585Y-3143514D01*
X5396141Y-3153928D01*
X5396141Y-3185170D01*
X5396141Y-3160786D02*
G01*
X5434241Y-3136656D01*
X5361343Y-3092968D02*
G01*
X5364899Y-3099826D01*
X5371757Y-3106684D01*
X5378869Y-3110240D01*
X5389029Y-3113796D01*
X5406555Y-3113796D01*
X5416969Y-3110240D01*
X5423827Y-3106684D01*
X5430685Y-3099826D01*
X5434241Y-3092968D01*
X5434241Y-3078998D01*
X5430685Y-3072140D01*
X5423827Y-3065282D01*
X5416969Y-3061726D01*
X5406555Y-3058170D01*
X5389029Y-3058170D01*
X5378869Y-3061726D01*
X5371757Y-3065282D01*
X5364899Y-3072140D01*
X5361343Y-3078998D01*
X5361343Y-3092968D01*
X900000Y-1632282D02*
G01*
X900000Y-1710260D01*
X905080Y-1725754D01*
X915494Y-1736168D01*
X931242Y-1741248D01*
X941656Y-1741248D01*
X957150Y-1736168D01*
X967564Y-1725754D01*
X972644Y-1710260D01*
X972644Y-1632282D01*
X1059004Y-1632282D02*
G01*
X1006934Y-1704926D01*
X1084912Y-1704926D01*
X1059004Y-1632282D02*
G01*
X1059004Y-1741248D01*
X900000Y-932281D02*
G01*
X900000Y-1010259D01*
X905080Y-1025753D01*
X915494Y-1036167D01*
X931242Y-1041247D01*
X941656Y-1041247D01*
X957150Y-1036167D01*
X967564Y-1025753D01*
X972644Y-1010259D01*
X972644Y-932281D01*
X1069418Y-932281D02*
G01*
X1017348Y-932281D01*
X1012268Y-979017D01*
X1017348Y-973937D01*
X1033096Y-968603D01*
X1048590Y-968603D01*
X1064084Y-973937D01*
X1074498Y-984097D01*
X1079832Y-999845D01*
X1079832Y-1010259D01*
X1074498Y-1025753D01*
X1064084Y-1036167D01*
X1048590Y-1041247D01*
X1033096Y-1041247D01*
X1017348Y-1036167D01*
X1012268Y-1031087D01*
X1006934Y-1020673D01*
X2315342Y-3687782D02*
G01*
X2304928Y-3692862D01*
X2294514Y-3703276D01*
X2289180Y-3713690D01*
X2284100Y-3729438D01*
X2284100Y-3755346D01*
X2289180Y-3770840D01*
X2294514Y-3781254D01*
X2304928Y-3791668D01*
X2315342Y-3796748D01*
X2336170Y-3796748D01*
X2346330Y-3791668D01*
X2356744Y-3781254D01*
X2362078Y-3770840D01*
X2367158Y-3755346D01*
X2367158Y-3729438D01*
X2362078Y-3713690D01*
X2356744Y-3703276D01*
X2346330Y-3692862D01*
X2336170Y-3687782D01*
X2315342Y-3687782D01*
X2330836Y-3776174D02*
G01*
X2362078Y-3807162D01*
X2401448Y-3708610D02*
G01*
X2411862Y-3703276D01*
X2427610Y-3687782D01*
X2427610Y-3796748D01*
X2315342Y-2487785D02*
G01*
X2304928Y-2492865D01*
X2294514Y-2503279D01*
X2289180Y-2513693D01*
X2284100Y-2529441D01*
X2284100Y-2555349D01*
X2289180Y-2570843D01*
X2294514Y-2581257D01*
X2304928Y-2591671D01*
X2315342Y-2596751D01*
X2336170Y-2596751D01*
X2346330Y-2591671D01*
X2356744Y-2581257D01*
X2362078Y-2570843D01*
X2367158Y-2555349D01*
X2367158Y-2529441D01*
X2362078Y-2513693D01*
X2356744Y-2503279D01*
X2346330Y-2492865D01*
X2336170Y-2487785D01*
X2315342Y-2487785D01*
X2330836Y-2576177D02*
G01*
X2362078Y-2607165D01*
X2406782Y-2513693D02*
G01*
X2406782Y-2508613D01*
X2411862Y-2498199D01*
X2417196Y-2492865D01*
X2427610Y-2487785D01*
X2448184Y-2487785D01*
X2458598Y-2492865D01*
X2463932Y-2498199D01*
X2469012Y-2508613D01*
X2469012Y-2519027D01*
X2463932Y-2529441D01*
X2453518Y-2544935D01*
X2401448Y-2596751D01*
X2474346Y-2596751D01*
X2315342Y-1287785D02*
G01*
X2304928Y-1292865D01*
X2294514Y-1303279D01*
X2289180Y-1313693D01*
X2284100Y-1329441D01*
X2284100Y-1355349D01*
X2289180Y-1370843D01*
X2294514Y-1381257D01*
X2304928Y-1391671D01*
X2315342Y-1396751D01*
X2336170Y-1396751D01*
X2346330Y-1391671D01*
X2356744Y-1381257D01*
X2362078Y-1370843D01*
X2367158Y-1355349D01*
X2367158Y-1329441D01*
X2362078Y-1313693D01*
X2356744Y-1303279D01*
X2346330Y-1292865D01*
X2336170Y-1287785D01*
X2315342Y-1287785D01*
X2330836Y-1376177D02*
G01*
X2362078Y-1407165D01*
X2411862Y-1287785D02*
G01*
X2469012Y-1287785D01*
X2437770Y-1329441D01*
X2453518Y-1329441D01*
X2463932Y-1334521D01*
X2469012Y-1339601D01*
X2474346Y-1355349D01*
X2474346Y-1365763D01*
X2469012Y-1381257D01*
X2458598Y-1391671D01*
X2443104Y-1396751D01*
X2427610Y-1396751D01*
X2411862Y-1391671D01*
X2406782Y-1386591D01*
X2401448Y-1376177D01*
X2315342Y-87784D02*
G01*
X2304928Y-92864D01*
X2294514Y-103278D01*
X2289180Y-113692D01*
X2284100Y-129440D01*
X2284100Y-155348D01*
X2289180Y-170842D01*
X2294514Y-181256D01*
X2304928Y-191670D01*
X2315342Y-196750D01*
X2336170Y-196750D01*
X2346330Y-191670D01*
X2356744Y-181256D01*
X2362078Y-170842D01*
X2367158Y-155348D01*
X2367158Y-129440D01*
X2362078Y-113692D01*
X2356744Y-103278D01*
X2346330Y-92864D01*
X2336170Y-87784D01*
X2315342Y-87784D01*
X2330836Y-176176D02*
G01*
X2362078Y-207164D01*
X2453518Y-87784D02*
G01*
X2401448Y-160428D01*
X2479426Y-160428D01*
X2453518Y-87784D02*
G01*
X2453518Y-196750D01*
X3770884Y-886899D02*
G01*
X3879850Y-886899D01*
X3770884Y-886899D02*
G01*
X3770884Y-840163D01*
X3775963Y-824669D01*
X3781297Y-819335D01*
X3791711Y-814255D01*
X3802125Y-814255D01*
X3812540Y-819335D01*
X3817620Y-824669D01*
X3822700Y-840163D01*
X3822700Y-886899D02*
G01*
X3822700Y-840163D01*
X3828034Y-824669D01*
X3833113Y-819335D01*
X3843527Y-814255D01*
X3859275Y-814255D01*
X3869690Y-819335D01*
X3874770Y-824669D01*
X3879850Y-840163D01*
X3879850Y-886899D01*
X3770884Y-779965D02*
G01*
X3848861Y-779965D01*
X3864356Y-774631D01*
X3874770Y-764217D01*
X3879850Y-748723D01*
X3879850Y-738309D01*
X3874770Y-722815D01*
X3864356Y-712401D01*
X3848861Y-707067D01*
X3770884Y-707067D01*
X3796791Y-594799D02*
G01*
X3786377Y-600133D01*
X3775963Y-610547D01*
X3770884Y-620961D01*
X3770884Y-641789D01*
X3775963Y-651949D01*
X3786377Y-662363D01*
X3796791Y-667697D01*
X3812540Y-672777D01*
X3838447Y-672777D01*
X3853941Y-667697D01*
X3864356Y-662363D01*
X3874770Y-651949D01*
X3879850Y-641789D01*
X3879850Y-620961D01*
X3874770Y-610547D01*
X3864356Y-600133D01*
X3853941Y-594799D01*
X3770884Y-560509D02*
G01*
X3879850Y-560509D01*
X3770884Y-487865D02*
G01*
X3843527Y-560509D01*
X3817620Y-534601D02*
G01*
X3879850Y-487865D01*
D21*
X4277100Y-1509999D02*
G01*
X4374128Y-1509999D01*
X4277100Y-1479519D02*
G01*
X4374128Y-1479519D01*
X4277100Y-1479519D02*
G01*
X4374128Y-1414749D01*
X4277100Y-1414749D02*
G01*
X4374128Y-1414749D01*
X4291070Y-1342613D02*
G01*
X4374128Y-1342613D01*
X4332726Y-1384269D02*
G01*
X4332726Y-1301211D01*
X4271772Y-435033D02*
G01*
X4368800Y-435033D01*
X4271772Y-404553D02*
G01*
X4368800Y-404553D01*
X4271772Y-404553D02*
G01*
X4368800Y-339783D01*
X4271772Y-339783D02*
G01*
X4368800Y-339783D01*
X4327143Y-309303D02*
G01*
X4327143Y-226245D01*
X5671802Y-1557284D02*
G01*
X5676374Y-1566428D01*
X5685518Y-1575826D01*
X5694662Y-1580398D01*
X5708632Y-1584970D01*
X5731746Y-1584970D01*
X5745462Y-1580398D01*
X5754860Y-1575826D01*
X5764004Y-1566428D01*
X5768576Y-1557284D01*
X5768576Y-1538742D01*
X5764004Y-1529598D01*
X5754860Y-1520454D01*
X5745462Y-1515628D01*
X5731746Y-1511056D01*
X5708632Y-1511056D01*
X5694662Y-1515628D01*
X5685518Y-1520454D01*
X5676374Y-1529598D01*
X5671802Y-1538742D01*
X5671802Y-1557284D01*
X5671802Y-1480576D02*
G01*
X5740890Y-1480576D01*
X5754860Y-1476004D01*
X5764004Y-1466860D01*
X5768576Y-1452890D01*
X5768576Y-1443746D01*
X5764004Y-1429776D01*
X5754860Y-1420632D01*
X5740890Y-1416060D01*
X5671802Y-1416060D01*
X5671802Y-1353068D02*
G01*
X5768576Y-1353068D01*
X5671802Y-1385580D02*
G01*
X5671802Y-1320810D01*
X5685518Y-1248674D02*
G01*
X5768576Y-1248674D01*
X5727174Y-1290330D02*
G01*
X5727174Y-1207272D01*
X5696559Y-482206D02*
G01*
X5701385Y-491604D01*
X5710529Y-500748D01*
X5719673Y-505320D01*
X5733643Y-509892D01*
X5756757Y-509892D01*
X5770473Y-505320D01*
X5779871Y-500748D01*
X5789015Y-491604D01*
X5793587Y-482206D01*
X5793587Y-463918D01*
X5789015Y-454520D01*
X5779871Y-445376D01*
X5770473Y-440804D01*
X5756757Y-436232D01*
X5733643Y-436232D01*
X5719673Y-440804D01*
X5710529Y-445376D01*
X5701385Y-454520D01*
X5696559Y-463918D01*
X5696559Y-482206D01*
X5696559Y-405752D02*
G01*
X5765901Y-405752D01*
X5779871Y-400926D01*
X5789015Y-391782D01*
X5793587Y-377812D01*
X5793587Y-368668D01*
X5789015Y-354952D01*
X5779871Y-345554D01*
X5765901Y-340982D01*
X5696559Y-340982D01*
X5696559Y-278244D02*
G01*
X5793587Y-278244D01*
X5696559Y-310502D02*
G01*
X5696559Y-245732D01*
X5752185Y-215252D02*
G01*
X5752185Y-132194D01*
D19*
X836500Y-294982D02*
G01*
X836500Y-372960D01*
X841580Y-388454D01*
X851994Y-398868D01*
X867742Y-403948D01*
X878156Y-403948D01*
X893650Y-398868D01*
X904064Y-388454D01*
X909144Y-372960D01*
X909144Y-294982D01*
X943434Y-315810D02*
G01*
X953848Y-310476D01*
X969596Y-294982D01*
X969596Y-403948D01*
D17*
X5504599Y-3704600D02*
G01*
X5504599Y-2942600D01*
X5021999Y-2942600D01*
X5021999Y-3704600D01*
X5504599Y-3704600D01*
X6774599Y-3730000D02*
G01*
X6774599Y-2968000D01*
X6291999Y-2968000D01*
X6291999Y-3730000D01*
X6774599Y-3730000D01*
X2913799Y-4619000D02*
G01*
X2913799Y-2079000D01*
X6266599Y-4221744D02*
G01*
X6266599Y-4602744D01*
X6774599Y-4602744D01*
X6774599Y-4221744D01*
X6266599Y-4221744D01*
X3193199Y-1799600D02*
G01*
X6799999Y-1799600D01*
X6799999Y-4619000D01*
X6139599Y-4619000D01*
X3193199Y-4898400D02*
G01*
X6139599Y-4898400D01*
X6139599Y-4898400D02*
G01*
X6139599Y-4619000D01*
X3193199Y-4898400D02*
G01*
X2913799Y-4619000D01*
X3193199Y-1799600D02*
G01*
X2913799Y-2079000D01*
X2913799Y-2079000D01*
X3472599Y-4034800D02*
G01*
X3472599Y-2587000D01*
X5504599Y-2587000D01*
X5504599Y-4034800D01*
X3472599Y-4034800D01*
X265000Y-1772998D02*
G01*
X1535000Y-1772998D01*
X1535000Y-2026998D01*
X265000Y-2026998D01*
X265000Y-1772998D01*
X265000Y-1072997D02*
G01*
X1535000Y-1072997D01*
X1535000Y-1326997D01*
X265000Y-1326997D01*
X265000Y-1072997D01*
X2729994Y-4929995D02*
G01*
X2729994Y-3870002D01*
X2300099Y-3869898D02*
G01*
X2779908Y-3869898D01*
X2779908Y-3869898D02*
G01*
X2779908Y-4930099D01*
X2779908Y-4930099D02*
G01*
X2300099Y-4930099D01*
X2300099Y-4930099D02*
G01*
X2300000Y-4599998D01*
X2300000Y-4599998D02*
G01*
X2050000Y-4599998D01*
X1799998Y-4599998D01*
X1799998Y-4199999D01*
X2050000Y-4199999D01*
X2300000Y-4199999D01*
X2300000Y-4199999D02*
G01*
X2300099Y-3869898D01*
X2729994Y-3729997D02*
G01*
X2729994Y-2670004D01*
X2300099Y-2669900D02*
G01*
X2779908Y-2669900D01*
X2779908Y-2669900D02*
G01*
X2779908Y-3730101D01*
X2779908Y-3730101D02*
G01*
X2300099Y-3730101D01*
X2300099Y-3730101D02*
G01*
X2300000Y-3400000D01*
X2300000Y-3400000D02*
G01*
X2050000Y-3400000D01*
X1799998Y-3400000D01*
X1799998Y-3000001D01*
X2050000Y-3000001D01*
X2300000Y-3000001D01*
X2300000Y-3000001D02*
G01*
X2300099Y-2669900D01*
X2729994Y-2529997D02*
G01*
X2729994Y-1470004D01*
X2300099Y-1469900D02*
G01*
X2779908Y-1469900D01*
X2779908Y-1469900D02*
G01*
X2779908Y-2530101D01*
X2779908Y-2530101D02*
G01*
X2300099Y-2530101D01*
X2300099Y-2530101D02*
G01*
X2300000Y-2200000D01*
X2300000Y-2200000D02*
G01*
X2050000Y-2200000D01*
X1799998Y-2200000D01*
X1799998Y-1800001D01*
X2050000Y-1800001D01*
X2300000Y-1800001D01*
X2300000Y-1800001D02*
G01*
X2300099Y-1469900D01*
X2729994Y-1329997D02*
G01*
X2729994Y-270004D01*
X2300099Y-269900D02*
G01*
X2779908Y-269900D01*
X2779908Y-269900D02*
G01*
X2779908Y-1330101D01*
X2779908Y-1330101D02*
G01*
X2300099Y-1330101D01*
X2300099Y-1330101D02*
G01*
X2300000Y-1000000D01*
X2300000Y-1000000D02*
G01*
X2050000Y-1000000D01*
X1799998Y-1000000D01*
X1799998Y-600001D01*
X2050000Y-600001D01*
X2300000Y-600001D01*
X2300000Y-600001D02*
G01*
X2300099Y-269900D01*
X3902100Y-1735005D02*
G01*
X3902100Y-35008D01*
X6142100Y-35008D01*
X6142100Y-1735005D01*
X3902100Y-1735005D01*
X646000Y-422998D02*
G01*
X1154000Y-422998D01*
X1154000Y-676998D01*
X646000Y-676998D01*
X646000Y-422998D01*
D18*
G75*
G01*
X2253620Y-4123139D02*
G03*
X2253620Y-4123393I-19999J-127D01*
G75*
G01*
X2253620Y-2923141D02*
G03*
X2253620Y-2923395I-19999J-127D01*
G75*
G01*
X2253620Y-1723141D02*
G03*
X2253620Y-1723395I-19999J-127D01*
G75*
G01*
X2253620Y-523141D02*
G03*
X2253620Y-523395I-19999J-127D01*
M02*
