G04 Layer: BottomSolderMaskLayer*
G04 EasyEDA v6.4.25, 2021-10-28T21:29:07+02:00*
G04 1e849160e92242f7ba3bdc0c984c9892,d4fee26373094fa09ce5a0d27c2d2193,10*
G04 Gerber Generator version 0.2*
G04 Scale: 100 percent, Rotated: No, Reflected: No *
G04 Dimensions in millimeters *
G04 leading zeros omitted , absolute positions ,4 integer and 5 decimal *
%FSLAX45Y45*%
%MOMM*%

%ADD22C,2.2032*%
%ADD23C,1.7272*%
%ADD26C,2.3872*%

%LPD*%
D22*
X2524996Y-4653991D02*
G01*
X2474996Y-4653991D01*
X2024994Y-4399991D02*
G01*
X1974997Y-4399991D01*
X2524996Y-3453993D02*
G01*
X2474996Y-3453993D01*
X2024994Y-3199993D02*
G01*
X1974997Y-3199993D01*
X2524996Y-2253995D02*
G01*
X2474996Y-2253995D01*
X2024994Y-1999995D02*
G01*
X1974997Y-1999995D01*
X2524996Y-1053998D02*
G01*
X2474996Y-1053998D01*
X2024994Y-799998D02*
G01*
X1974997Y-799998D01*
G01*
X3599611Y-2180589D03*
G01*
X3853611Y-2180589D03*
G01*
X4107611Y-2180589D03*
G01*
X4361611Y-2180589D03*
G01*
X4615611Y-2180589D03*
G01*
X4869611Y-2180589D03*
G01*
X5123611Y-2180589D03*
G01*
X5377611Y-2180589D03*
G01*
X5885611Y-2180589D03*
G01*
X5631611Y-2180589D03*
G01*
X3599611Y-4517389D03*
G01*
X3853611Y-4517389D03*
G01*
X4107611Y-4517389D03*
G01*
X4361611Y-4517389D03*
G01*
X4615611Y-4517389D03*
G01*
X4869611Y-4517389D03*
G01*
X5123611Y-4517389D03*
G01*
X5377611Y-4517389D03*
G01*
X5885611Y-4517389D03*
G01*
X5631611Y-4517389D03*
G01*
X3599611Y-4771389D03*
G01*
X3853611Y-4771389D03*
G01*
X4107611Y-4771389D03*
G01*
X4361611Y-4771389D03*
G01*
X4615611Y-4771389D03*
G01*
X4869611Y-4771389D03*
G01*
X5123611Y-4771389D03*
G01*
X5377611Y-4771389D03*
G01*
X5631611Y-4771389D03*
G01*
X5885611Y-4771389D03*
G01*
X3599611Y-1926589D03*
G01*
X3853611Y-1926589D03*
G01*
X4107611Y-1926589D03*
G01*
X4361611Y-1926589D03*
G01*
X4615611Y-1926589D03*
G01*
X4869611Y-1926589D03*
G01*
X5123611Y-1926589D03*
G01*
X5377611Y-1926589D03*
G01*
X5631611Y-1926589D03*
G01*
X5885611Y-1926589D03*
D23*
G01*
X391998Y-1899996D03*
G01*
X645998Y-1899996D03*
G01*
X899998Y-1899996D03*
G01*
X1153998Y-1899996D03*
G01*
X1407998Y-1899996D03*
G01*
X391998Y-1199997D03*
G01*
X645998Y-1199997D03*
G01*
X899998Y-1199997D03*
G01*
X1153998Y-1199997D03*
G01*
X1407998Y-1199997D03*
G36*
X2364993Y-4256278D02*
G01*
X2364993Y-4035805D01*
X2635250Y-4035805D01*
X2635250Y-4256278D01*
G37*
G36*
X2364993Y-3056128D02*
G01*
X2364993Y-2835655D01*
X2635250Y-2835655D01*
X2635250Y-3056128D01*
G37*
G36*
X2364993Y-1856231D02*
G01*
X2364993Y-1635760D01*
X2635250Y-1635760D01*
X2635250Y-1856231D01*
G37*
G36*
X2364993Y-656336D02*
G01*
X2364993Y-435863D01*
X2635250Y-435863D01*
X2635250Y-656336D01*
G37*
G36*
X3982720Y-1679447D02*
G01*
X3982720Y-1440687D01*
X4221479Y-1440687D01*
X4221479Y-1679447D01*
G37*
G36*
X3982720Y-1425447D02*
G01*
X3982720Y-1186687D01*
X4221479Y-1186687D01*
X4221479Y-1425447D01*
G37*
D26*
G01*
X4102100Y-470001D03*
G01*
X4102100Y-216001D03*
G36*
X5832856Y-1679447D02*
G01*
X5832856Y-1440687D01*
X6071361Y-1440687D01*
X6071361Y-1679447D01*
G37*
G36*
X5832856Y-1425447D02*
G01*
X5832856Y-1186687D01*
X6071361Y-1186687D01*
X6071361Y-1425447D01*
G37*
G01*
X5952109Y-470001D03*
G01*
X5952109Y-216001D03*
D23*
G01*
X772998Y-550011D03*
G01*
X1026998Y-550011D03*
M02*
