M48
METRIC,LZ,000.000
;FILE_FORMAT=3:3
;TYPE=PLATED
;Layer: Drill PTH
;EasyEDA v6.4.25, 2021-10-28T21:29:07+02:00
;1e849160e92242f7ba3bdc0c984c9892,d4fee26373094fa09ce5a0d27c2d2193,10
;Gerber Generator version 0.2
;Holesize 1 = 0.600 mm
T01C0.600
;Holesize 2 = 0.915 mm
T02C0.915
;Holesize 3 = 1.016 mm
T03C1.016
;Holesize 4 = 1.400 mm
T04C1.400
%
G05
G90
T01
X035996Y-021806
X038536Y-021806
X041076Y-021806
X043616Y-021806
X046156Y-021806
X048696Y-021806
X051236Y-021806
X053776Y-021806
X058856Y-021806
X056316Y-021806
X035996Y-045174
X038536Y-045174
X041076Y-045174
X043616Y-045174
X046156Y-045174
X048696Y-045174
X051236Y-045174
X053776Y-045174
X058856Y-045174
X056316Y-045174
X035996Y-047714
X038536Y-047714
X041076Y-047714
X043616Y-047714
X046156Y-047714
X048696Y-047714
X051236Y-047714
X053776Y-047714
X056316Y-047714
X058856Y-047714
X035996Y-019266
X038536Y-019266
X041076Y-019266
X043616Y-019266
X046156Y-019266
X048696Y-019266
X051236Y-019266
X053776Y-019266
X056316Y-019266
X058856Y-019266
T02
X003920Y-019000
X006460Y-019000
X009000Y-019000
X011540Y-019000
X014080Y-019000
X003920Y-012000
X006460Y-012000
X009000Y-012000
X011540Y-012000
X014080Y-012000
X007730Y-005500
X010270Y-005500
T03
X041021Y-015600
X041021Y-013061
X041021Y-004700
X041021Y-002160
X059521Y-015600
X059521Y-013060
X059521Y-004700
X059521Y-002160
T04
X025000Y-041460
X025000Y-046540
X020000Y-044000
X025000Y-029460
X025000Y-034540
X020000Y-032000
X025000Y-017460
X025000Y-022540
X020000Y-020000
X025000Y-005460
X025000Y-010540
X020000Y-008000
M30
