G04 Layer: TopLayer*
G04 EasyEDA v6.4.25, 2021-10-28T21:29:07+02:00*
G04 1e849160e92242f7ba3bdc0c984c9892,d4fee26373094fa09ce5a0d27c2d2193,10*
G04 Gerber Generator version 0.2*
G04 Scale: 100 percent, Rotated: No, Reflected: No *
G04 Dimensions in millimeters *
G04 leading zeros omitted , absolute positions ,4 integer and 5 decimal *
%FSLAX45Y45*%
%MOMM*%

%ADD11C,2.0000*%
%ADD12C,1.5240*%
%ADD14R,2.1840X2.1840*%
%ADD15C,2.1840*%

%LPD*%
D11*
G01*
X3599611Y-2180589D03*
G01*
X3853611Y-2180589D03*
G01*
X4107611Y-2180589D03*
G01*
X4361611Y-2180589D03*
G01*
X4615611Y-2180589D03*
G01*
X4869611Y-2180589D03*
G01*
X5123611Y-2180589D03*
G01*
X5377611Y-2180589D03*
G01*
X5885611Y-2180589D03*
G01*
X5631611Y-2180589D03*
G01*
X3599611Y-4517389D03*
G01*
X3853611Y-4517389D03*
G01*
X4107611Y-4517389D03*
G01*
X4361611Y-4517389D03*
G01*
X4615611Y-4517389D03*
G01*
X4869611Y-4517389D03*
G01*
X5123611Y-4517389D03*
G01*
X5377611Y-4517389D03*
G01*
X5885611Y-4517389D03*
G01*
X5631611Y-4517389D03*
G01*
X3599611Y-4771389D03*
G01*
X3853611Y-4771389D03*
G01*
X4107611Y-4771389D03*
G01*
X4361611Y-4771389D03*
G01*
X4615611Y-4771389D03*
G01*
X4869611Y-4771389D03*
G01*
X5123611Y-4771389D03*
G01*
X5377611Y-4771389D03*
G01*
X5631611Y-4771389D03*
G01*
X5885611Y-4771389D03*
G01*
X3599611Y-1926589D03*
G01*
X3853611Y-1926589D03*
G01*
X4107611Y-1926589D03*
G01*
X4361611Y-1926589D03*
G01*
X4615611Y-1926589D03*
G01*
X4869611Y-1926589D03*
G01*
X5123611Y-1926589D03*
G01*
X5377611Y-1926589D03*
G01*
X5631611Y-1926589D03*
G01*
X5885611Y-1926589D03*
D12*
G01*
X391998Y-1899996D03*
G01*
X645998Y-1899996D03*
G01*
X899998Y-1899996D03*
G01*
X1153998Y-1899996D03*
G01*
X1407998Y-1899996D03*
G01*
X391998Y-1199997D03*
G01*
X645998Y-1199997D03*
G01*
X899998Y-1199997D03*
G01*
X1153998Y-1199997D03*
G01*
X1407998Y-1199997D03*
G36*
X2624968Y-4045922D02*
G01*
X2624968Y-4246074D01*
X2375032Y-4246074D01*
X2375032Y-4045922D01*
G37*
G36*
X2624968Y-2845925D02*
G01*
X2624968Y-3046077D01*
X2375032Y-3046077D01*
X2375032Y-2845925D01*
G37*
G36*
X2624968Y-1645925D02*
G01*
X2624968Y-1846077D01*
X2375032Y-1846077D01*
X2375032Y-1645925D01*
G37*
G36*
X2624968Y-445924D02*
G01*
X2624968Y-646076D01*
X2375032Y-646076D01*
X2375032Y-445924D01*
G37*
D14*
G01*
X4102100Y-1559991D03*
G01*
X4102100Y-1306093D03*
D15*
G01*
X4102100Y-470001D03*
G01*
X4102100Y-216001D03*
D14*
G01*
X5952109Y-1559991D03*
G01*
X5952109Y-1305991D03*
D15*
G01*
X5952109Y-470001D03*
G01*
X5952109Y-216001D03*
D12*
G01*
X772998Y-550011D03*
G01*
X1026998Y-550011D03*
D11*
X2524996Y-4653991D02*
G01*
X2474996Y-4653991D01*
X2024994Y-4399991D02*
G01*
X1974997Y-4399991D01*
X2524996Y-3453993D02*
G01*
X2474996Y-3453993D01*
X2024994Y-3199993D02*
G01*
X1974997Y-3199993D01*
X2524996Y-2253995D02*
G01*
X2474996Y-2253995D01*
X2024994Y-1999995D02*
G01*
X1974997Y-1999995D01*
X2524996Y-1053998D02*
G01*
X2474996Y-1053998D01*
X2024994Y-799998D02*
G01*
X1974997Y-799998D01*
M02*
